<?xml version="1.0" encoding="utf-8"?>
<!-- Generator: Adobe Illustrator 19.0.0, SVG Export Plug-In . SVG Version: 6.00 Build 0)  -->
<svg version="1.1" id="objects" xmlns="http://www.w3.org/2000/svg" xmlns:xlink="http://www.w3.org/1999/xlink" x="0px" y="0px"
	 viewBox="0 0 55.8 34.2" style="enable-background:new 0 0 55.8 34.2;" xml:space="preserve">
<style type="text/css">
	.st0{fill:#1D1D1B;}
</style>
<g>
	<path class="st0" d="M55.6,16.1C54.5,5.9,49.3,3.5,39.7,3.2C28.9,2.9,14.2-4,4.5,3.4c-6.9,5.3-4.2,17.9-2.7,24.9
		c0.1,0.4,0.6,0.8,1,0.8c1.5-0.1,1.9-0.1,2.7-0.2c0.5,2.7,2.8,5.1,5.6,5.3c3.1,0.2,6.2-2.2,7.5-4.9c3.1,0.7,6.3,0.9,9.5,1
		c2.9,0.1,6.4,0.5,9.3-0.1c1.1,2.6,4.4,3.8,7.2,3.3c2.1-0.4,3.4-2,4-3.9C56.2,30.2,56.2,22,55.6,16.1z M51.3,10.1
		c-0.1,0-0.1,0.1-0.2,0.1c-0.6,0.6-0.9,1.4-1.8,1.5c-0.9,0.1-1.8-0.3-2.6-0.8c-2-1.1-3.4-3.1-3.9-5.3c1.5,0.2,3.1,0.4,4.6,0.7
		C48.9,6.8,50.2,8.2,51.3,10.1z M30.7,4.6c2.2,0.4,4.5,0.6,6.7,0.7c-0.1,2.3-0.7,5.1-3.6,5.1C30.9,10.4,30.7,6.9,30.7,4.6z
		 M25.3,3.6c0,0.1,0,0.2,0,0.2c0.2,1.7,0.3,3.5-1.2,4.6c-1.3,1-3.4,0.8-4.9,0.4c-1.3-0.3-1.5-1.1-1.6-2.3c-0.1-1.4-0.2-2.7-0.4-4.1
		C20,2.7,22.8,3.1,25.3,3.6z M10.7,2.9C10.4,5,11.4,7.1,9.2,8.5c-1.7,1-3.9,1-5.9,1.3C4.2,5.7,7.1,3.7,10.7,2.9z M2.3,18.6
		c0-1.3,0.1-2.5,0.2-3.7c0.9,0.1,2.2,0.4,2.3,1.5C4.9,17.7,3.3,18.3,2.3,18.6C2.3,18.6,2.3,18.6,2.3,18.6z M5.7,25.7
		c-0.2,0.5-0.3,1-0.3,1.4c-1.3-0.6-2.1-2-2.6-3.7c0,0,0,0,0,0c0.8,0.1,1.7,0.1,2.5,0.1c0.5,0,0.9,0.1,1.4,0.1
		C6.3,24.3,6,25,5.7,25.7z M16.7,27.9c-0.6,1.9-2.6,3.4-4.5,3.8c-2.4,0.6-4.3-1.6-4.4-3.9c-0.1-1.7,1-3.2,2.2-4.3
		c1.3-1.1,2.6-1.2,4.1-0.6c0,0.1,0,0.1,0,0.2c0.5,1,1.8,1.3,2.4,2.2C17,26.1,16.9,27,16.7,27.9z M37.1,28.2c-2.5-0.4-5.3,0-7.8,0.1
		c-3.4,0-6.8,0-10.2-0.3c0.2-1,0.2-2-0.1-2.9c6.1,0.8,12.7,1.1,18.8,0.4C37.4,26.4,37.2,27.3,37.1,28.2z M44.4,31.3
		c-2.4,0.9-5.2-0.9-5.1-3.4c0.1-2.4,2-4.1,4.2-4.8c0.2,0.3,0.5,0.5,0.8,0.5c0.8,0,1.4-0.1,2,0.5c0.6,0.6,0.7,1.7,0.7,2.5
		C47.1,28.4,46.3,30.7,44.4,31.3z M49.1,27.4c0.1-1.1-0.1-2.2-0.4-3.1c0.6,0.1,1.2,0.2,1.8,0.2c0.7,0.1,1.6,0.2,2.4,0.2
		C52.2,26.4,50.9,27.5,49.1,27.4z M53.5,22.9c-0.8-0.1-1.8,0-2.6,0c-1,0-1.9,0-2.9-0.1c-0.8-1.3-2.2-1.9-3.8-1.2
		c-0.1,0-0.2-0.1-0.3-0.1c-2.1-0.3-3.9,0.8-5.1,2.3c-0.1-0.1-0.2-0.1-0.4-0.1c-6.6-0.8-13.6,0.1-20.3-0.2c-0.9-1.1-2.2-2.1-3.5-1.9
		c0,0-0.1,0-0.1,0.1c-1-1.3-2.9-1.5-4.5-0.9c-0.9,0.4-1.7,0.9-2.3,1.6c0,0,0,0,0,0c-0.8-0.2-1.6,0-2.3,0c-0.8,0-1.7,0-2.5,0.1
		c-0.1,0-0.1,0.1-0.2,0.1c-0.2-0.9-0.3-2-0.3-3c0,0,0.1,0,0.1,0c1.8-0.2,3.7-1.3,3.8-3.3c0.1-1.9-1.9-3-3.6-3.1
		c0.1-0.8,0.2-1.5,0.3-2.2c2.5,0,5.5-0.1,7.6-1.2c2.2-1.2,2.8-5,1.7-7.2c1.2-0.2,2.4-0.2,3.7-0.2c0.3,3.5-0.9,7.6,3.6,8.4
		c2,0.4,4.5,0.4,6.1-1.1c1.7-1.5,2-3.7,1.7-5.8c0.8,0.2,1.6,0.3,2.3,0.5c-1,3.4,0.3,7.6,4.3,7.9c3.6,0.3,5.8-3.6,5.5-6.8
		c0.6,0,1.2,0.1,1.8,0.1c0.2,3.2,2.5,6,5.2,7.5c1.7,0.9,4.8,1,5.8-0.8C53.5,15.6,54.1,19.8,53.5,22.9z"/>
</g>
</svg>
