<?xml version="1.0" encoding="utf-8"?>
<!-- Generator: Adobe Illustrator 19.0.0, SVG Export Plug-In . SVG Version: 6.00 Build 0)  -->
<svg version="1.1" id="Layer_1" xmlns="http://www.w3.org/2000/svg" xmlns:xlink="http://www.w3.org/1999/xlink" x="0px" y="0px"
	 viewBox="0 0 1975.8 1575.2" style="enable-background:new 0 0 1975.8 1575.2;" xml:space="preserve">
<style type="text/css">
	.st0{fill:url(#SVGID_1_);}
	.st1{fill:url(#SVGID_2_);}
	.st2{fill:url(#SVGID_3_);}
	.st3{fill:url(#SVGID_4_);}
	.st4{fill:#26292B;}
</style>
<g>
	<g>
		<linearGradient id="SVGID_1_" gradientUnits="userSpaceOnUse" x1="408.1813" y1="702.945" x2="1488.1849" y2="1026.9452">
			<stop  offset="0" style="stop-color:#B7853C"/>
			<stop  offset="0.4666" style="stop-color:#F4E280"/>
			<stop  offset="1" style="stop-color:#986E33"/>
		</linearGradient>
		<polygon class="st0" points="482.5,985.8 482.5,890.9 676,522.7 698.4,568.1 		"/>
		<linearGradient id="SVGID_2_" gradientUnits="userSpaceOnUse" x1="125.125" y1="336.0128" x2="1821.1232" y2="1052.0118">
			<stop  offset="0" style="stop-color:#86888A"/>
			<stop  offset="0.4666" style="stop-color:#CBD6DB"/>
			<stop  offset="1" style="stop-color:#86888A"/>
		</linearGradient>
		<path class="st1" d="M1075.7,611.9l-79.4,154.3C981,739.5,655.3,92.4,625.4,53.7c-22.1-28.6-49.6-50-86.8-53.3
			c-52.6-4.7-95.7,38-95.8,98.9c-0.4,292.3-0.2,594.2-0.1,886.6h39.7l0.2-785.4c0-9.8,1.8-19.5,2.8-29.3
			c15.6-8.4,19.1,6.3,23.6,14.2c10.8,18.8,394.8,800.5,394.8,800.5h34.7c0,0,130.2-262.2,161.6-325.4L1075.7,611.9z"/>
		<linearGradient id="SVGID_3_" gradientUnits="userSpaceOnUse" x1="437.6923" y1="313.9102" x2="1825.5165" y2="730.2563">
			<stop  offset="0" style="stop-color:#B7853C"/>
			<stop  offset="0.4666" style="stop-color:#F4E280"/>
			<stop  offset="0.5468" style="stop-color:#EFDB7C"/>
			<stop  offset="0.6614" style="stop-color:#E0C86F"/>
			<stop  offset="0.7967" style="stop-color:#C7AA5B"/>
			<stop  offset="0.9467" style="stop-color:#A57F3E"/>
			<stop  offset="1" style="stop-color:#986E33"/>
		</linearGradient>
		<path class="st2" d="M1004.1,114.4c-10.7-19.5-20.3-39.9-35.7-56.5c-14.3-15.5-29.3-15.6-43.1,0.3c-3.9,4.5-7.5,9.4-10.3,14.7
			c-41.4,79.7-137.5,265.9-137.5,265.9l20.6,40.1c0,0,42.7-86.5,57.1-114c3.7-7,8.2-17,15.6-17.4c11.1-0.6,14.6,8.9,18.5,16
			c27.3,49.7,145.2,269.8,145.2,269.8L878.1,533l18.6,39l157.7-0.2l218.7,414.1l201.4-0.1C1474.6,985.8,1041.6,182.7,1004.1,114.4z"
			/>
		<linearGradient id="SVGID_4_" gradientUnits="userSpaceOnUse" x1="272.0247" y1="-11.961" x2="1968.0295" y2="704.041">
			<stop  offset="0" style="stop-color:#86888A"/>
			<stop  offset="0.4666" style="stop-color:#CBD6DB"/>
			<stop  offset="1" style="stop-color:#86888A"/>
		</linearGradient>
		<path class="st3" d="M1531.8,127.8c0-12.1,2.6-24.3,0.6-36.2c-3.1-19-5.7-26.8-11.1-39c-11.8-26.6-30.5-46.1-61.4-50
			c-36-4.5-64.3,11.6-86.6,36.7c-13.7,15.5-54.7,88.4-78.4,134.6l-124.4,248.3l24.6,45.6c0,0,107.5-215.6,142.3-283.8
			c4.6-9,11-21.7,26-12.4c7.5,9.3,6.3,20.5,6.4,31.3c0.1,128.1,0.3,589.1,0.3,589.1l104.6,193.9h57.5L1531.8,127.8z"/>
	</g>
	<g>
		<path class="st4" d="M1975.8,1071.6v10.7h-124.2c0.5,87.4,0.2,310.3,0.2,310.3h-56.8l0.2-310.3h-124.2l0-10.7H1975.8z"/>
		<path class="st4" d="M353.1,1392.6h13l73.2-143.3l118.4,0.2c0,0,52.7,102.1,74,143.2H711c0,0,69.2-84.5,100.7-123.4
			c11-13.6,13.5-13.9,23.4,0.4l83.7,123h71.1c-33.8-48.6-81.8-116.5-115.8-165c-4.9-7-5.1-13.5,1-20.7
			c13.1-15.4,85.5-109,106.3-135.4h-16.5c-28.1,35.4-70.3,87.3-98.1,122.8c-6.4,8.2-9.3,8.8-15.1,0.1c-13.9-20.8-71-102.1-84.8-123
			h-68.5c0,0,75.5,111.3,107.1,155.7c6.9,9.8,7.4,15.7-0.6,25.4c-34.3,41.5-108.1,134.8-108.1,134.8s-106.5-201.3-155.1-291.4
			c-5-9.3-10.2-23.8-19.9-23.8c-9,0-16.1,15.6-21.1,25.3c-40.8,78.9-146.1,278.8-146.1,278.8c0-9.9,0-16.4,0-22.9
			c0-74.2,0-148.4,0-222.6c0-10.4,0.3-20.9-0.6-31.3c-1-12.1-6.1-22.2-18.5-26.5c-11.5-4-20.8-0.2-29.8,7.7
			c-8.8,7.8-15.1,17.2-20.2,27.3c-29.3,58.5-108.3,210.9-108.3,210.9c-27.5-55.6-54.4-110.3-81.7-164.7
			c-10.5-20.9-21.1-41.7-32.9-61.9c-10-17-28.7-25.2-42.9-19.9c-17.2,6.5-19.8,20.8-19.7,37.4c0.4,88,0.3,282.8,0.3,282.8h11.1
			c0,0,0.1-168.8,0.1-240.8c0-3.8-0.3-7.7,0.1-11.5c0.4-4-2.2-9.8,3.4-11.5c7.2-2.3,7.1,5.7,9.4,9.1c4.9,7.2,8.2,15.4,12.1,23.2
			c35.8,73.3,77.4,158.4,113.5,231.6h11c11-21.9,94.7-190.8,122.3-247c3.3-6.7,5.3-16.2,13.1-15.9c5.2,0.2,3.8,12.2,3.8,18.8
			l0.1,244.2H353.1 M552.1,1237.9l-107.7-0.2l45.3-90.1c4.6-9.2,9-9.2,13.8,0L552.1,1237.9z"/>
		<path class="st4" d="M1719.4,1392.6c0,0-26.6-66.5-37.2-93.3c-14.6-37-42.8-59.9-81-67.8l0,0l0,0c10,0,46.2-5.9,60-12.4
			c22.1-10.4,39-25.8,39.4-58.5c0.3-26.7-6.4-50-30.8-67c-23.4-16.4-44.1-19-73-22c-1-0.1-152,0-152,0c-21.9,0-29.9,7-32.1,23.7
			c-0.9,6.9-2,14.1-2,21.2l-0.1,267.1c0,0-131.1-252-156.5-299c-3.1-5.7-5.4-13.1-13.1-12.9c-9.1,0.1-12.2,8.7-15.5,15.1
			c-35,67.6-69.8,135.4-104.5,203.2c-15.1,29.5-37,72.9-51.8,102.6h16.5l71.7-143.3h119.1l73,143.3h119.8c0,0-0.6-106.8-0.6-151.9
			c0-39.6-0.4-89.3-0.1-128.8c0.2-22.1,8-29.6,29.6-29.6c0,0,58.4,0,58.8,0c18.2,1.1,31.9,2.6,46.7,8.5c25.2,10,38.2,52.8,30.3,78.6
			c-7.8,25.4-21.3,44-49.3,48.1c0.2,0.2-91.2,0.2-91.2,0.2l0,15.9h68c7.5,0,15,1.3,20.9,4.9c11.9,8,16.8,20.2,23.8,33.1
			c13.8,25.5,36,93.9,44.9,121.2H1719.4z M1163.1,1237.8c13.5-26.6,32.9-65.7,46.5-92.3c2.3-4.6,6.1-9.7,10.4-1.9
			c15.6,28.7,49.8,94.1,49.8,94.1H1163.1z"/>
	</g>
	<g>
		<path d="M463.4,1453.4v79.1c0,4.7,0,6.5,5.1,6.5c1.3,0,1.6,0,4.4-0.3v5.8l-19.6,1.6c-0.7-3.4-0.9-5-1-9.2H452
			c-6.4,10.3-15.9,10.8-20.8,10.8c-22,0-28-18.4-28-31.5c0-17.2,9.7-34.4,30.1-34.4c7.3,0,14.1,2.8,18.5,8.4h0.3v-23.8
			c0-4.2,0-5.5-5.5-5.5h-4.4v-5.5L463.4,1453.4z M415.3,1514.8c0,10.3,2.4,15.4,5.8,19.1c3.1,3.3,8.1,5.3,12.9,5.3
			c10.2,0,18.9-7.8,18.9-24.9c0-15.4-7.1-24-19.3-24C416.6,1490.3,415.3,1509.1,415.3,1514.8z"/>
		<path d="M495,1514c0.1,14.6,6.4,25.1,21.3,25.1c8.8,0,16.8-4.2,23.6-9.9v9.6c-8.2,6.8-16.5,9.2-25.7,9.2
			c-21.9,0-31.1-15.7-31.1-32.1c0-20.1,12.2-34.1,31.1-34.1c5.1,0,16.1,1.3,22.3,10.5c4.8,7.1,5,16.5,5,21.6H495z M529.8,1506.7
			c-0.7-9.9-5.4-17.8-16.4-17.8c-2.1,0-14.9,0-17.8,17.8H529.8z"/>
		<path d="M577.4,1483.7v6.1c-5.5,0-7.5,0-7.5,2.2c0,1.1,0.4,2,0.9,3.2l15.5,36.9l14.9-36.5c0.4-0.9,0.7-2.2,0.7-3.2
			c0-2.5-1.7-2.5-7.3-2.6v-6.1h25.3v6.1c-6.3,0-6.4,0.1-10.1,8.7l-21,48.8h-8.1l-21.9-50.3c-3-6.8-4.7-6.8-10.5-7.2v-6.1H577.4z"/>
		<path d="M635.6,1514c0.1,14.6,6.4,25.1,21.3,25.1c8.8,0,16.8-4.2,23.6-9.9v9.6c-8.2,6.8-16.5,9.2-25.7,9.2
			c-21.9,0-31.1-15.7-31.1-32.1c0-20.1,12.2-34.1,31.1-34.1c5.1,0,16.1,1.3,22.3,10.5c4.8,7.1,5,16.5,5,21.6H635.6z M670.4,1506.7
			c-0.7-9.9-5.4-17.8-16.4-17.8c-2.1,0-14.9,0-17.8,17.8H670.4z"/>
		<path d="M711.2,1453.4v80.4c0,5.4,0,6.3,5.7,6.3h2.3v5.9h-27.9v-5.9h2.1c5.5,0,6.4-0.3,6.4-6.3v-66.5c0-6.1,0-6.3-10-6.1v-5.8
			L711.2,1453.4z"/>
		<path d="M794.2,1514.1c0,6.3-1.7,14.9-6.7,21.7c-5.1,7-13.5,12.2-26.9,12.2c-24.5,0-31.6-17.5-31.6-32c0-16.6,9.7-33.8,33.6-33.8
			C781.9,1482.3,794.2,1493.6,794.2,1514.1z M740.9,1515.4c0,11.8,5.8,25,20.9,25c5.1,0,12.4-1.7,16.9-9.7c2.3-4.1,3.6-9.2,3.6-15.9
			c0-21.6-12.9-24.9-20.5-24.9C747.6,1489.9,740.9,1501.5,740.9,1515.4z"/>
		<path d="M821.1,1483.7c0.9,4.9,0.9,5,0.9,9.2h0.3c2.8-3.8,8.2-10.7,20.9-10.7c18.8,0,28.2,14.6,28.2,31.2
			c0,15.3-8.4,34.6-29.9,34.6c-11.4,0-16.1-5-19.3-8.3v21.6c0,6.2,0.4,6.3,5.5,6.3h3.7v6.1h-28.6v-6.1h2.6c5.7,0,5.7-0.5,5.7-6.7
			v-63.5c0-5.5-0.1-6.3-5.7-6.3h-3.6v-5.8L821.1,1483.7z M821.1,1515.2c0,21.5,13.5,24.6,19.8,24.6c15.2,0,18.3-15.1,18.3-24.5
			c0-11.5-4.1-24.5-18.8-24.5C828.8,1490.8,821.1,1501,821.1,1515.2z"/>
		<path d="M899,1483.7c0.9,2.4,1.4,6.7,1.4,9.2h0.3c4.5-7.8,12.5-10.7,20.6-10.7c15.2,0,18.8,8.8,20,12c4.8-7.8,12.1-11.6,21.8-11.6
			c21.9,0,21.9,16.6,21.9,22.8v28.7c0,5.5,0,6.1,5.3,6.1h2.4v5.9h-27.6v-5.9h2.7c5.5,0,5.8-1.2,5.8-7.2v-25.1
			c0-7-0.3-16.9-13.1-16.9c-8,0-13.6,4.3-15.9,9.2c-1.8,4-1.8,10.5-1.8,11.5v22.5c0,5.4,0,6.1,5.5,6.1h2.1v5.9h-27.3v-5.9
			c8,0,8.2-0.3,8.2-7.2v-25.1c0-6.3-0.1-17-13.1-17c-14.5,0-17.8,11.3-17.8,20v23.3c0,4.9-0.1,6.1,4.8,6.1h3v5.9H881v-5.9h3
			c5.4,0,5.3-2.2,5.3-6.6v-36.3c0-5.9-0.4-6.2-6.5-6.2h-3v-5.7L899,1483.7z"/>
		<path d="M1013.8,1514c0.1,14.6,6.4,25.1,21.3,25.1c8.8,0,16.8-4.2,23.6-9.9v9.6c-8.2,6.8-16.5,9.2-25.7,9.2
			c-21.9,0-31.1-15.7-31.1-32.1c0-20.1,12.2-34.1,31.1-34.1c5.1,0,16.1,1.3,22.3,10.5c4.8,7.1,5,16.5,5,21.6H1013.8z M1048.6,1506.7
			c-0.7-9.9-5.4-17.8-16.4-17.8c-2.1,0-14.9,0-17.8,17.8H1048.6z"/>
		<path d="M1088.7,1483.6c0.3,0.9,0.7,2.4,0.9,4.1l0.4,5c2.3-3.2,7.4-10.4,21.2-10.4c21.5,0,21.5,16.7,21.5,23.2v29.8
			c0,4.3,0,5,5.3,5h2.7v5.9H1113v-5.9h2.3c5.7,0,5.7-0.5,5.7-7v-26.9c0-5.5-0.3-15.5-13.2-15.5c-5.5,0-12.4,2.4-15.5,8.7
			c-2,4-2.3,12.1-2.3,12.5v22.2c0,5.5,0.4,5.9,5.4,5.9h2.8v5.9h-27.4v-5.9h2.7c5.4,0,5.4-1.6,5.4-6.3v-36.5c0-4.9,0-6.3-3.8-6.3
			c-0.7,0-3.3,0-5.7,0.1v-5.9L1088.7,1483.6z"/>
		<path d="M1166.5,1466.7v17h17.9v7.6h-17.9v37.8c0,2.9,0,10.3,7.1,10.3c3.6,0,6-0.9,11.9-3.8v7.6c-4.1,2.1-9.4,4.5-15.5,4.5
			c-15.1,0-15.1-11.2-15.1-16.2v-40.2h-8.5v-5.4c11.4-3.7,12.5-13,13.4-19.2H1166.5z"/>
		<path d="M1295.3,1483.7v7.8h-12.5c1.7,2.1,4.8,5.9,4.8,14.1c0,9.2-5,19.2-17.9,21.9c-3.7,0.8-5,0.8-14.4,1.2
			c-5,0.3-8.4,2.5-8.4,5.1c0,4.1,9,4.5,13.5,4.7c19.3,0.8,24.3,0.9,29.4,5c2,1.6,5.1,4.9,5.1,10.7c0,2.9-0.9,10.4-9.5,15.7
			c-7,4.3-14.9,5.4-25.5,5.4c-8,0-30.9,0-30.9-15.3c0-2.8,0.4-11.6,15.5-14.6v-0.3c-3.8-1.4-8.4-3.3-8.4-8.3
			c0-7.5,9.2-10.1,12.1-10.8v-0.3c-9.2-3.3-14.2-11.1-14.2-20.4c0-10.5,6.8-23.4,27.3-23.4c6.4,0,9.1,0.8,12.4,1.8H1295.3z
			 M1261,1568.2c18.5,0,23.2-6.5,23.2-11.3c0-7.9-11.8-8.8-22.8-8.8c-5.8,0-22.2,0-22.2,9.9
			C1239.3,1567.4,1255.5,1568.2,1261,1568.2z M1245.4,1504.8c0,14.3,10,17.1,16.2,17.1c8,0,14.9-4.9,14.9-16.5
			c0-12.1-7.3-17.2-15.5-17.2C1246.2,1488.2,1245.4,1502.1,1245.4,1504.8z"/>
		<path d="M1321.4,1483.7c0.7,3.8,1.3,7.5,1.3,11.5h0.3c4.5-7.9,11.2-12.2,19.5-12.2c3.4,0,5.1,0.7,7.1,1.6v13h-7.8v-1.8
			c0-1.1,0-4.2-4.1-4.2c-5.7,0-14.8,8-14.8,27v17.2c0,4.2,1.8,4.5,4.8,4.5h4v5.9H1304v-5.9h2.1c5.3,0,6-1.3,6-5.9V1497
			c0-4.7-0.4-5.7-5.5-5.7h-3.8v-5.8L1321.4,1483.7z"/>
		<path d="M1420,1514.1c0,6.3-1.7,14.9-6.7,21.7c-5.1,7-13.5,12.2-26.9,12.2c-24.5,0-31.6-17.5-31.6-32c0-16.6,9.7-33.8,33.6-33.8
			C1407.6,1482.3,1420,1493.6,1420,1514.1z M1366.7,1515.4c0,11.8,5.8,25,20.9,25c5.1,0,12.4-1.7,16.9-9.7c2.3-4.1,3.6-9.2,3.6-15.9
			c0-21.6-12.9-24.9-20.5-24.9C1373.3,1489.9,1366.7,1501.5,1366.7,1515.4z"/>
		<path d="M1448.3,1482.9v39.8c0,6.2,0,15.8,12.7,15.8c11.9,0,18.3-7.4,18.3-19.7v-23.3c0-5.5-1-5.4-9.8-5.3v-5.9l20.9-1.3v49.5
			c0,4.1,0,6.1,3.7,6.1h5.7v5.7l-19.2,2c-1.3-4.9-1.3-7.8-1.3-9.6h-0.3c-5,8.7-12.9,11.2-20.9,11.2c-21.5,0-21.5-17.4-21.5-22.6
			v-29.6c0-5.5-0.9-5.4-9.5-5.3v-5.9L1448.3,1482.9z"/>
		<path d="M1522.4,1483.7c0.9,4.9,0.9,5,0.9,9.2h0.3c2.8-3.8,8.2-10.7,20.9-10.7c18.8,0,28.2,14.6,28.2,31.2
			c0,15.3-8.4,34.6-29.9,34.6c-11.4,0-16.1-5-19.3-8.3v21.6c0,6.2,0.4,6.3,5.5,6.3h3.7v6.1H1504v-6.1h2.6c5.7,0,5.7-0.5,5.7-6.7
			v-63.5c0-5.5-0.1-6.3-5.7-6.3h-3.6v-5.8L1522.4,1483.7z M1522.4,1515.2c0,21.5,13.5,24.6,19.8,24.6c15.2,0,18.3-15.1,18.3-24.5
			c0-11.5-4.1-24.5-18.8-24.5C1530,1490.8,1522.4,1501,1522.4,1515.2z"/>
	</g>
</g>
</svg>
