<?xml version="1.0" encoding="utf-8"?>
<!-- Generator: Adobe Illustrator 19.0.0, SVG Export Plug-In . SVG Version: 6.00 Build 0)  -->
<svg version="1.1" id="objects" xmlns="http://www.w3.org/2000/svg" xmlns:xlink="http://www.w3.org/1999/xlink" x="0px" y="0px"
	 viewBox="0 0 57.1 37.8" style="enable-background:new 0 0 57.1 37.8;" xml:space="preserve">
<style type="text/css">
	.st0{fill:#1D1D1B;}
</style>
<g>
	<path class="st0" d="M53.9,26.5C53.9,26.5,53.9,26.5,53.9,26.5c0-3.6,0.2-7.6-2.1-10.5c-1.9-2.3-5.9-1.7-8.8-1.1
		c0.2-4.1,0.9-9.1-1.4-12.5c-2.2-3.1-9.9-2.4-13-2.3c-3,0.1-7.3,0.3-7.8,4C20.6,5.1,20.7,6,20.7,7c-1.3-2.4-2.8-4.6-5.1-6
		c-2-1.2-4.2,0-5.4,1.8c-5,2.7-8.8,8.2-8.7,14C-1.4,21,0.1,25.9,4.8,28c4.8,2.1,9.5-0.5,9.4-5.9c0-0.6-0.6-1.1-1.2-0.9
		c-3.5,0.9-6.8-0.3-7.8-3.8c2.3-0.8,4.2-2.3,6-4c0.4,1,0.9,1.9,1.2,2.8c1.7,4.1,4.1,7.9,5.9,11.9c-3.9,1.3-7.6,4.4-4,8.2
		c2,2.1,6.8,1,9.1,0.7c7.9-0.8,15.8,0.9,23.7,0.8C54.6,37.8,61.2,32.3,53.9,26.5z M12.2,23.3c-0.6,3.2-3.5,4.3-6.7,2.9
		c-3.6-1.6-4.5-5-3.1-8.3c0.4,0,0.7,0,1.1-0.1C3.7,22.2,8.3,23.8,12.2,23.3z M3.2,16.1C3.5,11.9,6.2,8,9.4,5
		c-0.3,2.1,0.3,4.5,1.2,6.8C8.4,13.8,6.2,15.9,3.2,16.1z M13,12.2c0-0.1-0.1-0.2-0.1-0.4c0.2-0.3,0-0.7-0.3-0.9
		c-0.3-0.9-0.6-1.8-0.8-2.7c-0.4-1.7-0.7-8.3,4-4.6c2.5,2,3.8,5.5,5.4,8.3c0,0.2,0,0.5,0,0.7c0.1,5,0.7,10,1.1,14.9
		c-0.1-0.1-0.3-0.1-0.5-0.1c-0.8,0-1.7,0.2-2.6,0.4C18,22.5,14.9,17.4,13,12.2z M20.3,30.3c0,0.3,0,0.6-0.1,1
		c-0.4-0.2-0.9,0-0.9,0.4c-0.2,1-0.3,1.7,0.2,2.3c0.1,0.3,0.2,0.6,0.5,1.1c-2,0.1-2.2-1.6-0.4-5.3c0.5-0.1,0.9-0.2,1.4-0.3
		C20.6,29.7,20.3,30,20.3,30.3z M22.5,31.4c-0.2-0.5-0.4-1-0.7-1.5c-0.1-0.3-0.4-0.4-0.6-0.4c0.1,0,0.2,0,0.3-0.1
		c0.5,0,1.1,0,1.6-0.1C22.8,30.1,22.7,30.7,22.5,31.4z M23.5,34.7c0,0,0-0.1,0-0.1c0.1-0.8,0.3-1.6,0.5-2.4c0.3,0.8,0.7,1.7,0.9,2.4
		C24.4,34.7,24,34.7,23.5,34.7z M24.7,29.3C24.7,29.3,24.7,29.3,24.7,29.3c0.7-0.1,1.5-0.1,2.2-0.1c-0.2,1-0.6,2.1-1.1,3.2
		C25.4,31.4,25,30.3,24.7,29.3z M27.1,34.5c-0.1,0-0.3,0-0.4,0c0.6-1.5,0.9-2.1,1.1-2.5c0.3,0.8,0.5,1.6,0.7,2.4c0,0,0,0.1,0,0.1
		C28.1,34.6,27.6,34.5,27.1,34.5z M29.5,31.5c-0.3-0.8-0.6-1.6-0.8-2.4c0.7,0,1.4-0.1,2.1-0.1C30.3,29.9,29.8,30.7,29.5,31.5z
		 M30.1,34.6c0,0,0.1-0.1,0.1-0.1c0.4-1.1,0.8-2.1,1.3-3c0.4,1.1,0.7,2.2,1,3.4C31.7,34.7,30.9,34.7,30.1,34.6z M33.5,31.6
		c-0.3-0.9-0.6-1.8-0.9-2.6c0.5,0,1.1,0,1.6-0.1C33.9,29.8,33.7,30.7,33.5,31.6z M34.7,35c0.2-0.9,0.3-1.8,0.6-2.7
		c0.3,0.9,0.6,1.9,1,2.8C35.7,35.1,35.2,35,34.7,35z M36.2,28.8c0.7,0,1.4-0.1,2.1-0.1c-0.5,1-0.9,2-1.3,3
		C36.7,30.8,36.4,29.8,36.2,28.8z M38,35.3c0-0.1,0.1-0.2,0.1-0.3c0.2-1.2,0.5-2.4,1-3.5c0.5,1.3,0.9,2.7,1.3,4
		C39.6,35.5,38.8,35.4,38,35.3z M42.5,35.6c0.4-0.9,0.8-1.9,1-2.8c0.3,0.8,0.6,1.6,0.8,2.4c0,0.2,0.1,0.3,0.2,0.4
		C43.9,35.7,43.2,35.7,42.5,35.6z M47.3,35.7c-0.4,0-0.8,0-1.2,0c0.1-0.1,0.2-0.2,0.2-0.4c0.3-1.1,0.6-2.1,1-3.2
		c0.2,1.1,0.4,2.1,0.6,3.2c0,0.2,0.1,0.3,0.2,0.4C47.8,35.7,47.6,35.7,47.3,35.7z M49,28.4c0,0.5,0,1-0.1,1.4
		c-0.1-0.4-0.2-0.9-0.3-1.3c-0.2-0.9-1.4-1-1.8-0.2c-0.7,1.1-1.1,2.3-1.5,3.5c-0.3-0.8-0.6-1.7-1-2.5c-0.3-0.8-1.7-1.1-1.9,0
		c-0.3,1.3-0.5,2.5-0.9,3.6c-0.5-1.4-1-2.9-1.6-4.3c0,0,0,0,0,0c1.6-0.1,3.1-0.3,4.7-0.6c1.6-0.3,3.3-0.5,4.9-0.5
		C49.2,27.7,49,28,49,28.4z M49.6,35.7c0.1-0.1,0.2-0.2,0.2-0.4c0.2-0.8,0.4-1.5,0.6-2.3c0.2,0.7,0.5,1.4,0.8,2.1
		C50.8,35.4,50.3,35.6,49.6,35.7z M51.7,25.5c-2.5-0.5-5.5,0.3-7.6,0.6c-6.7,1-13.5,0.9-20.3,1.6c0.2-5.8-0.3-11.5-0.3-17.3
		c0-4.5-1.7-7.4,4.1-8C31.2,2,36,2,39.5,3.5c2.7,1.2,1.3,10.4,1.2,12.8c0,0.8,0.7,1.2,1.4,1.1c2.3-0.4,5.9-1.5,8,0.3
		C52,19.1,51.7,23,51.7,25.5z"/>
	<path class="st0" d="M37.5,3.9c-3.8,0-7.6,0-11.3,0c-0.6,0-1.1,0.5-1.1,1.1c0,2.5-0.5,4.9-0.8,7.4c-0.2,1.3-0.7,3.4,0.7,4.3
		c0.5,0.3,1,0,1.1-0.5c3.6,0.4,7.4,0.7,11,0.4c0.6-0.1,1-0.4,1-1c0.4-3.5,0.4-7,0.4-10.6C38.6,4.4,38.1,3.9,37.5,3.9z M26.3,14.9
		c0.1-1.4,0.1-2.7,0.3-4.1c0.2-1.6,0.5-3.2,0.6-4.8c3.1,0,6.2,0,9.3,0c0,2.9-0.1,5.7-0.3,8.6C32.9,14.8,29.6,14.6,26.3,14.9z"/>
</g>
</svg>
