<?xml version="1.0" encoding="utf-8"?>
<!-- Generator: Adobe Illustrator 18.1.1, SVG Export Plug-In . SVG Version: 6.00 Build 0)  -->
<svg version="1.1" id="Layer_1" xmlns="http://www.w3.org/2000/svg" xmlns:xlink="http://www.w3.org/1999/xlink" x="0px" y="0px"
	 viewBox="0 0 640 637" enable-background="new 0 0 640 637" xml:space="preserve">
<g>
	<g>
		<defs>
			<rect id="SVGID_1_" x="0.1" width="639.8" height="637"/>
		</defs>
		<clipPath id="SVGID_2_">
			<use xlink:href="#SVGID_1_"  overflow="visible"/>
		</clipPath>
		<path clip-path="url(#SVGID_2_)" d="M443.5,0C334.9,0,246.9,69.6,246.9,155.6c0,51.2,31.4,96.4,79.6,124.8
			c-4.7,25.8-19.7,56.3-40.7,77.3c51.3-3.8,96.4-18.5,125.9-48.7c10.4,1.3,20.9,2.2,31.8,2.2C552,311.1,640,241.5,640,155.6
			C640,69.6,552,0,443.5,0L443.5,0z M351.3,186.3c-17,0-30.7-13.7-30.7-30.7c0-17,13.8-30.7,30.7-30.7s30.7,13.8,30.7,30.7
			C382,172.5,368.3,186.3,351.3,186.3L351.3,186.3z M443.5,186.3c-17,0-30.7-13.7-30.7-30.7c0-17,13.8-30.7,30.7-30.7
			c17,0,30.7,13.8,30.7,30.7C474.2,172.5,460.4,186.3,443.5,186.3L443.5,186.3z M535.6,186.3c-17,0-30.7-13.7-30.7-30.7
			c0-17,13.8-30.7,30.7-30.7s30.7,13.8,30.7,30.7C566.3,172.5,552.6,186.3,535.6,186.3L535.6,186.3z M405.3,513.5
			c-62.3-50.1-79.7-25.5-108,2.8c-19.7,19.7-69.7-21.5-112.8-64.6c-43.1-43.1-84.4-93.1-64.6-112.8c28.3-28.3,52.9-45.7,2.8-108
			c-50.1-62.3-83.5-14.5-110.9,12.9c-31.6,31.6-1.7,149.4,114.8,265.8C243,626,360.8,656,392.4,624.4
			C419.8,597,467.6,563.6,405.3,513.5L405.3,513.5z M77.8,264.6c-0.8,0.3-2.1,0.8-3.6,1.5c-3,1.1-6.5,2.4-10.5,4.1
			c-1.8,0.9-3.9,1.9-5.8,3c-2,1.2-3.9,2.5-5.7,4.1c-1.9,1.6-3.4,3.5-5.1,5.6c-1.3,2.3-2.9,4.6-3.8,7.4c-1.3,2.7-1.8,5.7-2.5,8.7
			c-0.6,3.1-0.7,6.2-1.1,9.3c0,6.3,0.2,12.3,1,17.4c0.4,5.2,1.8,9.6,2.3,12.7c0.6,3.1,1,4.8,1,4.8s-0.9-1.5-2.6-4.2
			c-1.6-2.7-4.2-6.3-6.5-11.3c-2.7-4.9-5.2-10.9-7.6-17.6c-0.8-3.5-2-7.1-2.6-11c-0.4-3.9-1.2-8-0.9-12.2c-0.1-4.2,0.7-8.5,1.5-12.9
			c1.3-4.2,2.6-8.5,4.6-12.3c1.9-3.9,4.2-7.4,6.6-10.4c2.4-3.1,4.8-5.7,7.1-8.1c4.6-4.5,8.6-7.8,10.9-9.9c1.3-1.1,1.9-1.7,2.5-2.3
			c0.5-0.5,0.8-0.8,0.8-0.8l21.4,33.4C79.1,264.1,78.7,264.3,77.8,264.6L77.8,264.6z M398.5,582.1c-2.1,2.6-5.4,6.6-9.8,11.2
			c-2.4,2.3-4.8,4.7-7.9,7c-2.9,2.4-6.3,4.6-9.9,6.6c-3.6,2-7.5,3.7-11.6,5c-4.1,1.2-8.3,2.2-12.4,2.6l-6.2,0.4l-6-0.3
			c-3.9,0-7.6-1.1-11.1-1.7c-3.5-0.7-6.7-2-9.7-2.8c-3-0.8-5.8-2.3-8.3-3.3c-5.1-2-8.8-4.4-11.6-5.8c-2.7-1.5-4.3-2.4-4.3-2.4
			s1.8,0.3,4.8,0.7c3,0.4,7.5,1.4,12.6,1.5c2.6,0.1,5.3,0.5,8.2,0.2c2.9-0.2,5.9-0.1,9-0.6c3-0.6,6.1-0.8,9.1-1.9l4.4-1.3l4-1.9
			c10.7-5.2,16.5-14.3,19.9-21.9c1.7-3.9,2.9-7.4,3.8-10.1c1-2.9,1.5-4.5,1.5-4.5l34.6,19.4C401.7,578.3,400.5,579.7,398.5,582.1
			L398.5,582.1z M398.5,582.1"/>
	</g>
</g>
</svg>
