<?xml version="1.0" encoding="utf-8"?>
<!-- Generator: Adobe Illustrator 19.0.0, SVG Export Plug-In . SVG Version: 6.00 Build 0)  -->
<svg version="1.1" id="objects" xmlns="http://www.w3.org/2000/svg" xmlns:xlink="http://www.w3.org/1999/xlink" x="0px" y="0px"
	 viewBox="0 0 36.2 53.8" style="enable-background:new 0 0 36.2 53.8;" xml:space="preserve">
<style type="text/css">
	.st0{fill:#1D1D1B;}
</style>
<path class="st0" d="M35.2,30.9c-0.1-0.1-0.2-0.2-0.3-0.3c-1.4-1-3.4-1.2-5.5-1.1c0.3-1.2,0.4-2.5,0.5-3.7c0.1-1.3,0.5-2.8-0.4-3.9
	l0,0c-0.3-0.4-0.8-0.5-1.2,0c-0.7,0.9-0.6,2.1-0.5,3.2c0,1.5,0,3.1-0.2,4.6c-2.2,0.3-4.3,0.7-5.9,0.8c-4.4,0.4-8.8,0-13.2,0.2
	c0,0,0,0,0,0c-0.1-1.7-0.1-3.3,0-5c0-1,0.7-3.1,0.1-4c-0.2-0.2-0.4-0.4-0.7-0.5c8.7,0.1,17.4-0.8,26.1,0c0.6,0.1,1-0.4,1.1-0.8
	c0.7-0.2,1.3-1,0.8-1.8c-1.7-2.5-4.7-4.6-6.9-6.7c-3.8-3.6-6.7-8-10.5-11.6c-0.5-0.5-1.4-0.5-1.9,0C11.1,6.2,6.6,12.8,0.4,18
	c-0.5,0.4-0.4,1-0.1,1.5C-0.2,20,0,20.8,0.8,20.9c2.3,0.2,4.5,0.3,6.8,0.4c-0.1,0-0.2,0-0.3,0.1c-1.1,0.7-0.8,2.7-0.8,3.9
	c0,1.8,0.1,3.8,0.6,5.5c-1.6,0.2-3.1,0.4-4.7,0.9c0,0-0.1,0-0.1,0c-0.3,0-0.6,0.1-0.8,0.3c0,0-0.1,0-0.1,0c-0.7,0.3-0.8,1-0.5,1.5
	c0,0.2-0.1,0.3-0.1,0.5c-0.1,1,0,2,0.4,2.9c0,0.1,0.1,0.1,0.2,0.2c-0.5,0.2-0.5,1.1,0.1,1.3c0.9,0.2,1.8,0.4,2.8,0.6
	c-0.1,0.2-0.2,0.4-0.2,0.7c0,4-0.4,8.2,0.5,12.2c-0.1,0-0.2,0-0.3,0.1c-0.8,0.2-0.6,1.4,0.2,1.4c2.4-0.1,4.7,0,7,0.1
	c0.6,0,1.2-0.6,1.2-1.2c0-2.8,1.6-4.9,4.6-4.4c3,0.4,3.2,2.7,3.8,5.1c0,0.1,0.1,0.2,0.1,0.3c0.1,0.4,0.3,0.7,0.8,0.7
	c1.7,0.1,3.4,0,5.2-0.2c1.2-0.1,3.1,0.1,3.8-1c0.1-0.1,0.1-0.2,0.1-0.4c0.3-0.1,0.5-0.4,0.7-0.7c0.7-2,0.6-4.5,0.7-6.5
	c0-1.5,0.5-4.7-0.4-6c1-0.3,2-0.7,2.7-1.3c0.4,0.1,0.9-0.1,1-0.6c0.4-1.1,0.4-2.3,0.3-3.4C35.9,32.7,35.9,31.6,35.2,30.9z
	 M29.7,18.2c0-0.3,0.1-0.6,0.1-0.9c0-0.3,0.1-0.6,0.2-0.9c0.7,0.7,1.5,1.5,2.2,2.2C31.4,18.4,30.6,18.3,29.7,18.2z M27.6,15.9
	c0-0.6,0.1-1.3,0.1-2c0.4,0.5,0.9,0.9,1.3,1.4c-0.1,0.5-0.1,1-0.1,1.5c0,0.4-0.1,0.9-0.1,1.3c-0.5,0-0.9-0.1-1.4-0.1
	C27.4,17.3,27.5,16.6,27.6,15.9z M25.4,11.4c0.3,0.4,0.7,0.8,1,1.1c-0.1,0.9,0,1.9,0,2.9c0,0.9,0,1.7-0.1,2.6
	c-0.5,0-0.9-0.1-1.4-0.1C25.2,15.7,25.4,13.5,25.4,11.4z M22,12.9c0-1.7,0.2-3.5,0.1-5.2c0.6,0.7,1.3,1.4,1.9,2.1c0,0,0,0,0,0
	c-0.2,2.6-0.3,5.3-0.3,7.9c-0.6,0-1.1,0-1.7,0C22.1,16.2,22,14.6,22,12.9z M19.2,11.8c-0.1-2.3,0.2-4.7,0.1-7c0.6,0.7,1.3,1.3,1.9,2
	C21.1,6.8,21.1,6.9,21,7c-0.6,1.5-0.3,3.5-0.3,5.1c0.1,1.9,0.2,3.8,0.3,5.7c-0.7,0-1.5,0-2.2,0.1C19.3,15.9,19.3,13.9,19.2,11.8z
	 M25.1,32.8c0.6,0,1.2,0,1.8-0.1c-0.1,0.7,0,1.4,0.1,2c0,0.6,0.1,1.1,0.1,1.7c-1,0.2-1.9,0.3-2.9,0.4C24.7,35.7,25.2,34.1,25.1,32.8
	z M21.7,36.9c0-0.9,0.1-1.7,0.1-2.6c0-0.5,0.1-0.9,0.2-1.4c0.6,0,1.2-0.1,1.8-0.1c0,0.6,0.1,1.1,0,1.7c-0.1,0.8-0.3,1.7-0.5,2.5
	c-0.6,0.1-1.1,0.2-1.7,0.2C21.6,37.1,21.7,37,21.7,36.9z M18.7,35.3c0.1-0.8,0.4-1.5,0.5-2.3c0.5,0,0.9,0,1.4-0.1
	c-0.2,1.3,0,2.7,0,3.9c0,0.1,0.1,0.3,0.1,0.3c-0.4,0-0.8,0.1-1.2,0.1c-0.3,0-0.7,0-1,0C18.6,36.6,18.6,36,18.7,35.3z M16.7,34.5
	c0-0.5,0.1-1,0-1.5c0.4,0,0.8,0,1.2,0c-0.5,1.3-0.6,2.9-0.5,4.3c-0.3,0-0.6,0-0.9,0C16.7,36.4,16.7,35.5,16.7,34.5z M10.7,34.3
	c0.1-0.4,0.3-0.8,0.4-1.2c0.7,0,1.4,0,2,0c0,0.4,0,0.7,0,1.1c0,0.9-0.1,1.8-0.2,2.6c-0.1,0.5,0.6,0.7,0.7,0.2
	c0.4-1.2,0.7-2.6,0.5-3.9c0.4,0,0.8,0,1.1,0c0,0.5,0,1,0,1.5c0,0.9,0.1,1.9,0.1,2.8c-1.6,0-3.3,0-4.9-0.1c0,0,0,0,0,0
	C10.5,36.3,10.5,35.3,10.7,34.3z M8,34.7c0-0.5,0.1-1,0-1.5c0.6,0,1.2,0,1.8-0.1c-0.1,0.2-0.1,0.4-0.2,0.6c-0.2,1.2-0.2,2.4,0.1,3.5
	c-0.6,0-1.3,0-1.9,0C7.9,36.4,8,35.5,8,34.7z M16.1,12.8c-0.1-2.4,0.3-5.1,0-7.4c1.1-1.1,1.9-1.8,2-1.8c0,0,0.1,0.1,0.1,0.1
	c-0.9,1.8-0.6,4.2-0.4,6.1c0.2,2.7,0.4,5.4,0,8.1C17.2,18,16.6,18,16,18C16.2,16.3,16.2,14.6,16.1,12.8z M14.7,6.8
	c-0.2,1.4,0,2.8,0.1,4.1c0.1,2.4,0.2,4.8,0.2,7.1c-0.5,0-1.1,0.1-1.6,0.1c-0.1-3.3,0-6.6-0.1-9.9C13.8,7.8,14.2,7.3,14.7,6.8z
	 M9.6,14.2c0-0.7,0.1-1.5,0.1-2.2c0.7-0.8,1.4-1.5,2.2-2.2c0,2.8,0.2,5.7,0.5,8.5c-1,0.1-1.9,0.2-2.9,0.2
	C9.7,17.1,9.6,15.6,9.6,14.2z M2.7,19.1c0.6-0.6,1.5-1.5,2.5-2.5c0.1,0.8,0.2,1.5,0.3,2.3C4.6,19,3.6,19,2.7,19.1z M6.3,18.8
	c0-0.6,0-1.3,0-1.9c0-0.5,0-1,0.1-1.5c0.6-0.7,1.3-1.4,2-2.1c0,0.2,0,0.3,0,0.5c0,1.6-0.1,3.2,0.2,4.8C7.8,18.7,7,18.8,6.3,18.8z
	 M2.7,37C3,36.8,3.1,36.4,3,36c-0.2-0.8-0.1-1.5,0.1-2.3c0.5-0.1,0.9-0.1,1.4-0.2c0,0.3,0.1,0.7,0.1,1c0.1,0.9,0.2,1.8,0.4,2.6
	C4.2,37.1,3.5,37.1,2.7,37z M5.7,33.3c0.4,0,0.8-0.1,1.2-0.1c0,0.5,0,1,0,1.4c0,0.8,0.1,1.7,0.1,2.5c-0.4,0-0.8,0-1.2,0
	c-0.1-0.9-0.1-1.8-0.2-2.7C5.7,34.1,5.7,33.7,5.7,33.3z M29.5,50.9c-0.6,0-1.2,0.1-1.8,0.2c-1.5,0.2-3,0.5-4.6,0.7
	c1.4-6.3-12-10.2-13-0.9c-1.5,0.1-3,0.2-4.5,0.5c0.3-3.9,0.5-7.9,0.5-11.9c0-0.1,0-0.3-0.1-0.4c4.4,0.6,9,0.6,13.3,0.5
	c2.3,0,6.7,0.2,10.3-0.3c-0.2,0.7,0,1.6,0,2.3c0,1.4,0,2.9,0,4.3C29.9,47,29.3,49.4,29.5,50.9z M30,34c0,0.7-0.2,1.3-0.4,2
	c-0.6,0.1-1.2,0.2-1.8,0.3c0-0.5,0.1-1.1,0.1-1.6c0-0.7,0.1-1.4,0.1-2.1c0.7,0,1.4,0,2-0.1C30,33.1,30.1,33.6,30,34z M30.8,35.9
	c0.5-1,0.7-2.3,0.5-3.3c0.7,0,1.5-0.1,2.2-0.1c0.1,0.4,0.2,0.8,0.3,1.2c0.1,0.6,0.2,1.3,0.2,1.9C32.9,35.6,31.9,35.7,30.8,35.9z"/>
</svg>
