<?xml version="1.0" encoding="utf-8"?>
<!-- Generator: Adobe Illustrator 19.0.0, SVG Export Plug-In . SVG Version: 6.00 Build 0)  -->
<svg version="1.1" id="objects" xmlns="http://www.w3.org/2000/svg" xmlns:xlink="http://www.w3.org/1999/xlink" x="0px" y="0px"
	 viewBox="0 0 53 50.7" style="enable-background:new 0 0 53 50.7;" xml:space="preserve">
<style type="text/css">
	.st0{fill:#1D1D1B;}
</style>
<g>
	<path class="st0" d="M23.6,25C16.3,24.7,9,25.4,1.7,26.7c-0.4,0.1-0.8,0.5-0.9,0.9C-0.3,34.7,0.3,41.9,0,49c0,0.9,1.3,1.2,1.7,0.6
		c2.2,0.8,5.5,0.4,7.7,0.5c4.3,0.2,8.7,0.2,13,0.6c0.7,0.1,1.3-0.6,1.3-1.3c0.1-7.7,0.7-15.4,1.2-23.1C24.9,25.6,24.3,25.1,23.6,25z
		 M4.1,47.2c-0.6,0-1.2-0.1-1.8-0.1c-0.1,0-0.1,0-0.2,0C2.6,41.7,2.5,36.4,3,31c0.3-3.7,7.1-2.9,9.9-3.2c3.1-0.3,6.2-0.3,9.4-0.2
		c-0.4,6.8-0.9,13.6-1.1,20.4c-3.6-0.3-7.2-0.4-10.7-0.5C8.3,47.4,6.2,47.3,4.1,47.2z"/>
	<path class="st0" d="M39.7,1c-0.1-0.6-0.7-1-1.3-1H18.9c-0.7,0-1.3,0.6-1.3,1.3c0,6.8-0.3,13.6-0.4,20.4c-0.6,0.2-1,1.1-0.3,1.4
		c0.2,0.1,0.4,0.2,0.6,0.2c0.3,0.3,0.6,0.4,1,0.4c6.4,2,13.6,0.5,20.3,0.4c0.7,0,1.3-0.6,1.3-1.3C40.2,15.5,40.8,8.2,39.7,1z
		 M19.8,22c0-6.4,0.3-12.9,0.4-19.3h17.1c0.8,6.3,0.3,12.6,0.3,18.9C31.6,21.7,25.7,22.5,19.8,22z"/>
	<path class="st0" d="M51.2,28c-3.2-6.5-14.5-2.1-19.8-1.4c-0.1,0-0.2,0.1-0.3,0.1c-0.6-0.3-1.5-0.1-1.5,0.8
		C29.3,34.7,29,41.8,29.3,49c0,0.7,0.6,1.3,1.3,1.3c6.6,0.3,13.3,0,19.9,0c0.5,0,1.2-0.4,1.3-1C52.8,43,54.2,34,51.2,28z M31.9,47.7
		c-0.2-6.2-0.1-12.4-0.2-18.6c4.4-0.7,15.4-4.6,17.4,0.5c2,5.3,1.2,12.4,0.4,18.1C43.6,47.8,37.7,48,31.9,47.7z"/>
	<path class="st0" d="M16.3,43.6c0-0.4-0.1-0.8-0.2-1.2c-0.3-1.3-0.7-2.6-1.1-3.9c-0.7-2.6-1.4-5.5-2.9-7.7c-0.5-0.8-1.8-0.9-2.3,0
		c-2.1,4.4-2.8,9.1-3.3,14c-0.2,1.7,2.4,1.6,2.6,0c0.1-0.6,0.1-1.2,0.2-1.8c0.6,0,1.1,0,1.7,0c0.4,0,0.8,0,1.3,0c0.2,0,0.4,0,0.6,0
		c0.1,0,0.6,0.1,0.2,0c0.1,0,0.2,0,0.3,0c0.5,1.3,1.3,2.8,2.5,1.7c0.2-0.2,0.3-0.5,0.3-0.8C16.3,43.8,16.3,43.7,16.3,43.6z
		 M9.7,40.8c0.3-2.1,0.8-4.2,1.5-6.2c0.7,1.9,1.2,3.9,1.7,5.9C12,40.7,10.8,40.7,9.7,40.8z"/>
	<path class="st0" d="M45.4,39.2c-0.3-0.3-0.6-0.6-1-0.8c0.8-1,1.2-2.4,0.9-4c-0.5-3.6-4.4-4.3-7.2-2.9c-0.4,0.2-0.6,0.7-0.6,1.1
		c0,3.8-0.1,7.6,0.2,11.3c0.1,0.9,0.8,1.2,1.4,1c0.6,1.4,2.6,1.9,4,1.6c1.6-0.4,2.6-1.5,3.2-3C46.9,42,46.4,40.4,45.4,39.2z
		 M40.4,37.9c-0.1,0-0.2,0-0.3,0c0-1.5,0-3,0-4.4C43.2,32.6,43.9,37.4,40.4,37.9z M43.8,42.9c-0.6,2.1-2.5,0.5-3.8,0.5c0,0,0,0,0,0
		c0.1-0.9,0.1-1.9,0.2-2.8c0.1,0,0.3,0,0.4,0C42.3,40.3,44.4,40.6,43.8,42.9z"/>
	<path class="st0" d="M34.1,13.5c-1.8,0.2-2.9,2.5-4.9,2.2c-1.2-0.2-2.1-1.3-2.5-2.4c-0.4-1.2-0.5-2.7,0.1-3.7
		c0.7-1.3,2.5-1.1,3.8-0.9c1.5,0.3,2-1.7,0.6-2.2c-2.1-0.9-4.8-0.7-6.3,1.2c-1.3,1.7-1.5,4.1-0.9,6.1c0.6,2,2,3.8,4.1,4.4
		c1.1,0.3,2.4,0.2,3.4-0.3c1.2-0.5,3.3-1.6,3.6-3C35.3,14.3,34.9,13.4,34.1,13.5z"/>
</g>
</svg>
