<?xml version="1.0" encoding="utf-8"?>
<!-- Generator: Adobe Illustrator 19.0.0, SVG Export Plug-In . SVG Version: 6.00 Build 0)  -->
<svg version="1.1" id="objects" xmlns="http://www.w3.org/2000/svg" xmlns:xlink="http://www.w3.org/1999/xlink" x="0px" y="0px"
	 viewBox="0 0 57.5 36.6" style="enable-background:new 0 0 57.5 36.6;" xml:space="preserve">
<style type="text/css">
	.st0{fill:#1D1D1B;}
</style>
<g>
	<path class="st0" d="M56.8,20.3c-1-2.5-3-4.5-5.5-5.5c0.5-19.5-39.9-18.8-39.8-2.8c-0.2,0.1-0.3,0.2-0.3,0.3c-2.3,0-5.4,3.2-6.7,5
		c-0.9,1.3-1.6,2.8-1.7,4.5c0,0.9-0.4,2.7-0.1,3.7c-1.1,0.4-2.3,1.2-2.6,2.4c-0.3,1.3,0.6,2.3,1.8,2.7c1.7,0.6,4.1,0.3,5.7-0.4
		c0.1-0.1,0.2-0.1,0.3-0.3c1,3.8,4.6,7.2,8.9,6.6c2.7-0.4,4.9-2.8,5.7-5.4c4.5-0.2,9-0.3,13.4-0.4c1,2.6,3.5,4.7,6.3,5
		c3.3,0.4,6.9-1.2,8.1-4.2c2.4,1.1,5.8,0.6,6.1-2.5c0-0.4,0-0.7,0-1C58,25.9,57.6,22.5,56.8,20.3z M51.2,16.8
		c1.4,0.9,2.5,2.2,3.4,3.7c0.1,0.1,0.1,0.3,0.2,0.4c-0.5,0.1-0.9,0.4-1.4,0.4c-0.6,0-1-0.3-1.4-0.7C51.1,19.7,51,18.1,51.2,16.8
		C51.2,16.8,51.2,16.8,51.2,16.8z M27.3,2.7c1-0.1,2-0.2,2.9-0.3c2.1-0.1,4.2,0,6.2,0.3c-0.2,1.1-0.1,2.4-0.1,3.5c0,1.6,0,3.3,0,4.9
		c-3.6,0.1-7.2,0.2-10.8,0.3c0.5-1.6,0.9-3.3,1.2-4.9C27.1,5.4,27.5,3.9,27.3,2.7z M25.6,3c-0.2,1.1-0.1,2.3-0.2,3.4
		c-0.2,1.7-0.5,3.4-0.8,5.1c-3.9,0.1-7.8,0.3-11.7,0.3C14.1,6.4,20.1,4,25.6,3z M5.8,19.3C5.8,19.3,5.8,19.3,5.8,19.3
		C5.8,19.3,5.8,19.3,5.8,19.3c0,0,0-0.1,0.1-0.1c0.1-0.1,0-0.2,0-0.2c0.2-0.3,0.4-0.6,0.6-1c0.9-1.1,2.5-2,3.7-3
		c0.2,0.8,0.4,1.5,0,2.3c-0.3,0.7-1.1,1.2-1.8,1.5c-0.6,0.3-1.4,0.5-2,0.5C6.3,19.4,6,19.2,5.8,19.3C5.8,19.4,5.8,19.4,5.8,19.3z
		 M7.4,29.1c-1.5,0-3,0.3-4.5-0.1c-0.3-0.1-0.8-0.4-0.9-0.5c-0.1,0-0.1-0.1-0.1-0.1c0,0,0-0.1,0-0.1c0,0,0,0,0,0
		c0-0.2,0.1-0.3,0.4-0.6c0.3-0.3,0.8-0.5,1.3-0.7c0.6-0.2,1.3-0.3,2-0.4c0.6,0,1.4,0.1,2.1,0c-0.1,0.8-0.1,1.7,0,2.6
		C7.6,29.1,7.5,29.1,7.4,29.1z M15.3,34.2c-2.3,0-4.2-2.1-5-4c-1-2.4-0.2-4.3,1.5-5.9c3.1-0.8,6.5,0.2,8.1,3.1
		C21.6,30.4,18.4,34.2,15.3,34.2z M42,33.3c-2.3-0.4-4.2-2.5-4.4-4.8c-0.4-3.4,2.4-3.8,4.9-4.6c0.2-0.1,0.4-0.2,0.5-0.4
		c2.6,0.5,4.9,2.4,5.5,5.1C49.2,32.2,44.8,33.8,42,33.3z M50.4,30.4c0.1-0.4,0.1-0.9,0.1-1.3c0-0.9-0.2-1.7-0.5-2.4
		c1.6-0.2,4.3-0.1,4.5,2.1C54.6,31,51.9,30.7,50.4,30.4z M55,25.9c-1.4-1.1-3.7-1.4-5.3-1.1c-0.3,0-0.4,0.2-0.5,0.4
		c-1.6-2.2-4.3-3.5-7-3.4c-0.2,0-0.4,0.1-0.5,0.2c-3.4-0.2-6.3,2.7-6.4,6.1c0,0.2,0,0.4,0.1,0.6c-4.2,0-8.6,0.5-12.8,1
		c0.1-1.1,0-2.1-0.5-3.1c-1.7-3.5-5.8-5.1-9.4-4.1c-0.3-0.5-1-0.8-1.5-0.5c-1.5,0.8-2.4,1.8-3,3c-0.7-0.5-1.9-0.3-2.7-0.3
		c-0.2,0-0.4,0.1-0.6,0.1c0-0.5,0.1-1,0.2-1.9c0.1-1.2,0.2-2.2,0.6-3.1c0,0.1,0.1,0.2,0.2,0.2c0.6,0.6,2.1,0.3,2.8,0.1
		c1.2-0.3,2.2-0.9,2.8-1.9c0.8-1.1,0.9-3.1,0.1-4.2c0,0-0.1-0.1-0.1-0.1c0.2-0.2,0.3-0.4,0.4-0.7c0.3,0.2,0.6,0.1,0.8-0.2
		c11.7,0.7,23.4,0.3,35.1,0c1.3,0,1.3-1.9,0-1.9c-3.2-0.1-6.4,0-9.6,0c0.2-1.5,0.3-3,0.4-4.4c0.1-1.1,0.2-2.4,0.1-3.5
		c5.5,1.4,10,5,10.9,11.4C49,14.9,49,15.7,49.7,16c0.2,0.1,0.4,0.2,0.7,0.3c-0.1,0.1-0.1,0.1-0.1,0.2c-0.5,1.8-0.3,3.8,0.9,5.3
		c0.8,1,2.9,1.4,4.1,0.6C55.4,23.6,55.2,24.7,55,25.9z"/>
	<path class="st0" d="M25.9,20.5c0.1-1.4,0.8-3,0.6-4.4c-0.1-0.6-0.9-0.7-1.3-0.3c-1,1-0.8,2.8-0.9,4.1c-0.1,1.7,0.1,3.5,0.4,5.2
		c0.2,0.7,1.3,0.6,1.3-0.2C25.9,23.5,25.9,22,25.9,20.5z"/>
	<g>
		<path class="st0" d="M37,15.8C37,15.7,37,15.7,37,15.8L37,15.8z"/>
		<path class="st0" d="M38.6,15.3c-0.6-0.7-1.5-0.1-1.6,0.6c0-0.1,0-0.1,0-0.1c0,0,0,0.1,0,0.2c-0.1,0.2,0,0.5,0,0.7
			c0,0.6,0,1.3-0.1,1.9c-0.1,0.8-0.6,3,0.3,3.4c0,0,0,0,0,0c0,0,0,0,0,0c0,0,0,0,0,0v0c0.1,0.1,0.2,0.1,0.4,0.1
			c0.3,0,0.6-0.1,0.7-0.4c0.6-1.3,0.6-3.1,0.7-4.5C39,16.5,39.1,15.8,38.6,15.3z"/>
	</g>
</g>
</svg>
