<?xml version="1.0" encoding="utf-8"?>
<!-- Generator: Adobe Illustrator 19.0.0, SVG Export Plug-In . SVG Version: 6.00 Build 0)  -->
<svg version="1.1" id="Слой_1" xmlns="http://www.w3.org/2000/svg" xmlns:xlink="http://www.w3.org/1999/xlink" x="0px" y="0px"
	 viewBox="0 0 488.1 477.7" style="enable-background:new 0 0 488.1 477.7;" xml:space="preserve">
<style type="text/css">
	.st0{fill:#469C46;}
</style>
<path class="st0" d="M321.8,142.9c-7.4,3.7-13.6-4.5-23.1,4.7c11.6,0.1,13.3,7.4,23.1,6.3C321.8,153.9,321.8,153.9,321.8,142.9z"/>
<path class="st0" d="M179.7,114.2c-7.4,3.3-12.1-4.1-20.6,4.2c10.3,0.1,10.8,6.6,20.6,5.6C179.7,124,179.7,124,179.7,114.2z"/>
<path class="st0" d="M350.9,268.7c0,0,8.8,3.9,24.6,2.3c0,0-29.9-29.1-37.7-55.9c0,0,6.6,2.5,17.7,3.6c0,0-25.7-23.8-33.8-62.3
	c0,0-2.8,18.1-17.3,36c-2.8,3.4-6.3,6-10.4,8.1c-5.4-5.6-9.7-15-14.7-23.1c0,0,14.5,4,23.7,2.7c0,0-33.5-36.5-42.3-67.8
	c0,0,12.8,8.4,22.3,8.4c-25-25.4-35-60.5-38.9-84.7c3.2-1.3,5.5-4.5,5.5-8.2c0-4.5-3.3-8.1-7.6-8.8c-0.3-4.2-0.5-7.4-0.5-9.2
	c0-1.3,0-4.1,0-9.7c-9.8,3.7-13.6-4.5-23.1,4.7c11,0.1,10.9,6.7,21.4,6.4c-0.1,1.9-0.2,4.5-0.5,7.9c-4.3,0.6-7.6,4.3-7.6,8.8
	c0,3.8,2.4,7,5.7,8.3c-3.7,25.7-12.9,63.9-36,92c12.9-0.9,20-6.3,20-6.3c-4.8,17.3-17.3,33.6-27.4,44.8
	c-9.6-19.9-14.6-40.1-14.6-40.1c-10,43.1-39.2,77.2-39.2,77.2c12.5-1.2,19.8-4.1,19.8-4.1c-8.7,29.9-42.4,65-42.4,65
	c17.7,1.8,27.3-2.5,27.3-2.5c-13.7,48.7-36.5,61-36.5,61h91.5h10.1H383C383,323.1,363.2,312.1,350.9,268.7z M183.2,263.7h-9.8v-9.8
	h9.8V263.7z M183.2,218.9h-9.8v-9.8h9.8V218.9z M212.7,241.6h-9.8v-9.8h9.8V241.6z M212.7,218.9h-9.8v-9.8h9.8V218.9z M232.3,263.7
	h-9.8v-9.8h9.8V263.7z M232.3,218.9h-9.8v-9.8h9.8V218.9z M232.3,194.9h-9.8v-9.8h9.8V194.9z M249.6,281h-9.8v-9.8h9.8V281z
	 M249.6,241.6h-9.8v-9.8h9.8V241.6z M249.6,194.9h-9.8v-9.8h9.8V194.9z M249.6,150.6h-9.8v-9.8h9.8V150.6z M269.2,241.6h-9.8v-9.8
	h9.8V241.6z M269.2,218.9h-9.8v-9.8h9.8V218.9z M303.7,241.6h-9.8v-9.8h9.8V241.6z M318.4,241.6h-9.8v-9.8h9.8V241.6z"/>
<g>
	<g>
		<path class="st0" d="M32.8,356.1H2.9c-1.2,0-1.7,0.4-1.7,1.4v55.8c0,1,0.5,1.5,1.6,1.5h3.8c1,0,1.5-0.5,1.5-1.5v-25.8h21.7
			c1.1,0,1.6-0.5,1.6-1.5v-3.5c0-1-0.5-1.4-1.5-1.4H8v-18.7h24.7c1.1,0,1.6-0.5,1.6-1.5v-3.5C34.3,356.5,33.8,356.1,32.8,356.1z
			 M64,355.4c-20.3,0-22.6,18.2-22.6,29.2c0,14,1.8,31,22.5,31c21.1,0,23-17.1,23-31C86.9,370.2,84.1,355.4,64,355.4z M63.9,409.4
			c-12.4,0-15.4-9.6-15.4-23.9c0-14.8,3.6-24.1,15.4-24.1c12.5,0,16.1,8.7,16.1,24.1C80,400.4,76.6,409.4,63.9,409.4z M123.7,389.1
			c8.1-2.7,11.2-9.6,11.2-16.4c0-11.9-8.2-16.6-17.1-16.6H99.8c-1,0-1.5,0.4-1.5,1.4v55.8c0,1,0.5,1.5,1.5,1.5h3.8
			c1,0,1.5-0.5,1.5-1.6v-23.1h11.6l11.3,23.5c0.4,1,1,1.1,1.9,1.1h5c0.8,0,1.1-0.7,0.8-1.5L123.7,389.1z M116,384h-10.9v-21.5h11.1
			c5.9,0,11.6,1.9,11.6,10.2C127.8,382.4,121.2,384,116,384z M178.2,408.5h-25.8v-21.1H175c1,0,1.5-0.4,1.5-1.4v-3.5
			c0-1-0.5-1.4-1.5-1.4h-22.6v-18.7h25.1c1.1,0,1.6-0.5,1.6-1.5v-3.5c0-1-0.5-1.4-1.5-1.4h-30.5c-1.1,0-1.6,0.5-1.6,1.5v55.8
			c0,1,0.5,1.4,1.6,1.4h31.1c1.1,0,1.5-0.3,1.5-1.4V410C179.7,409,179.2,408.5,178.2,408.5z M207.5,381.4
			c-9.2-1.7-12.6-2.5-12.6-9.5c0-6,2.7-9.9,12-9.9c5.2,0,10.9,0.6,14.8,1.2c1.2,0.1,1.4-0.4,1.7-1.1l0.5-2.4
			c0.3-0.8,0.2-1.5-1.2-1.9c-4.7-1.9-12.4-2.3-15.8-2.3c-12.1,0-18.9,5.8-18.9,16.6c0,11.7,8.3,14,18.9,15.7
			c9.6,1.7,12.3,3.5,12.3,11.7c0,6-4.6,9.5-13.5,9.5c-3.5,0-10.8-0.5-15.8-1.2c-0.8-0.1-1.3,0.3-1.5,0.9l-0.6,2.5
			c-0.3,0.8-0.2,1.3,1.1,1.9c3.8,1.7,11.9,2.5,16.8,2.5c11,0,20.2-4.3,20.2-17.1C226.1,385.3,217.8,383.3,207.5,381.4z M269.9,356.1
			h-36.6c-1,0-1.5,0.4-1.5,1.4v3.5c0,1,0.5,1.5,1.6,1.5h14.8v50.8c0,1,0.5,1.5,1.6,1.5h3.8c1,0,1.4-0.5,1.4-1.5v-50.8h14.9
			c1.1,0,1.6-0.5,1.6-1.5v-3.5C271.4,356.5,270.8,356.1,269.9,356.1z M464.4,356.2h-16.8c-1.1,0-1.6,0.4-1.6,1.4v55.7
			c0,1.1,0.4,1.5,1.9,1.5h16.6c19.1,0,23.7-13.2,23.7-29.5C488.1,369,483.2,356.2,464.4,356.2z M463.7,408.4h-10.9v-45.9h11.5
			c8.5,0,16.5,3.7,16.5,23.5C480.8,405.6,471.7,408.4,463.7,408.4z M332.2,408.5h-26.6v-50.8c0-1.3-0.4-1.6-1.4-1.6h-3.9
			c-1,0-1.5,0.3-1.5,1.6v55.7c0,1,0.5,1.4,1.6,1.4h31.9c1,0,1.4-0.4,1.4-1.4V410C333.7,409,333.2,408.5,332.2,408.5z M431.3,356.1
			h-3.7c-1.1,0-1.5,0.3-1.5,1.6v44.3h-0.3l-4.7-7.4l-24-37c-0.6-0.8-0.9-1.4-2.2-1.4h-3.6c-1,0-1.4,0.4-1.4,1.3v55.9
			c0,1,0.5,1.5,1.6,1.5h3.6c1,0,1.5-0.5,1.5-1.5v-44.8h0.3l5.1,8.4l23.6,36.5c0.6,1,1,1.4,2.3,1.4h3.4c1,0,1.4-0.4,1.4-1.4v-55.7
			C432.8,356.3,432.3,356.1,431.3,356.1z M363.3,357.5c-0.3-0.8-0.5-1.3-1.7-1.3h-5c-0.9,0-1.4,0.4-1.7,1.3l-18.5,55.9
			c-0.4,1-0.1,1.4,0.7,1.4h4.6c1,0,1.5-0.3,1.9-1.4l4.6-14.3h21.6l4.3,14.5c0.3,0.8,0.5,1.1,1.5,1.1h5.4c0.6,0,0.9-0.4,0.7-1.2
			L363.3,357.5z M350.3,392.8l4.5-15l4.2-14.1h0.3l4.2,14.3l4.4,14.8H350.3z"/>
	</g>
</g>
<g>
	<path class="st0" d="M203.4,454h-5.6v10.5h4.9c3.9,0,6.5-1.6,6.5-5.2C209.2,455.8,206.8,454,203.4,454z"/>
	<path class="st0" d="M208.1,448.8c0-3.2-2.3-4.7-6.4-4.7h-3.9v9.3h5.4C206.1,453.4,208.1,451.5,208.1,448.8z"/>
	<polygon class="st0" points="284.3,458 294,458 289.1,444 	"/>
	<path class="st0" d="M1.2,431v2.5h169.3c2.1,7.4,7.4,30-0.7,44.3h148.9c-7.9-14.2-2.2-36.8,0-44.3h169.4V431H1.2z M202.7,465.2
		h-5.6v-21.8h4.5c4.6,0,7.2,1.8,7.2,5.4c0,2.8-1.7,4.4-4.1,4.9c2.8,0.2,5.2,1.9,5.2,5.7C209.9,463.2,207.1,465.2,202.7,465.2z
		 M231.2,458.6c0,4-2,6.9-6.6,6.9c-4.7,0-6.6-2.9-6.6-6.9v-15.2h0.7v15.1c0,3.7,1.7,6.3,5.9,6.3c4.3,0,5.9-2.7,5.9-6.3v-15.1h0.7
		V458.6z M247.4,465.5c-4.9,0-8.4-3.9-8.4-11.2c0-7.6,3.7-11.2,8.5-11.2c2.4,0,3.8,0.7,5.1,1.9l-0.4,0.5c-1.4-1.1-2.6-1.7-4.7-1.7
		c-4.4,0-7.8,3.2-7.8,10.5c0,6.9,3.4,10.5,7.7,10.5c2.5,0,3.8-0.9,5-1.9l0.4,0.5C251.6,464.6,250,465.5,247.4,465.5z M273.9,465.2
		h-0.7V454h-11.8v11.2h-0.7v-21.8h0.7v9.9h11.8v-9.9h0.7V465.2z M296.4,465.2l-2.2-6.5h-10.1l-2.2,6.5h-0.7l7.6-21.8h0.9l7.6,21.8
		H296.4z"/>
	<rect x="1.2" y="337.5" class="st0" width="486.9" height="2.5"/>
</g>
</svg>
