<?xml version="1.0" encoding="utf-8"?>
<!-- Generator: Adobe Illustrator 19.0.0, SVG Export Plug-In . SVG Version: 6.00 Build 0)  -->
<svg version="1.1" id="objects" xmlns="http://www.w3.org/2000/svg" xmlns:xlink="http://www.w3.org/1999/xlink" x="0px" y="0px"
	 viewBox="0 0 50.5 55.2" style="enable-background:new 0 0 50.5 55.2;" xml:space="preserve">
<style type="text/css">
	.st0{fill:#1D1D1B;}
</style>
<path class="st0" d="M50.5,12.7c0.1-3.9,0-7.9-0.7-11.8c-0.1-0.5-0.7-1-1.3-1c-4.4,0.3-8.9,0.4-13.3,0.4c-0.8,0-1.5,0.8-1.3,1.7
	c1.3,4.2,0.7,8-4.5,7c-2.8-0.5-7.6-3.3-4.8-6.5c0.4-0.5-0.1-1.4-0.8-1c-0.1,0.1-0.2,0.2-0.3,0.2c0-0.1-0.1-0.3-0.2-0.4
	c-1.2-1.2-3.1-1-4.7-1.1c-2.3-0.1-4.7,0.1-7,0.1c-0.9,0-1.4,0.8-1.3,1.6c0.4,2.3,0.7,4.7,1.2,7c0,0.1,0,0.3,0.1,0.4
	c0.3,1.6,0.7,3.1,1.2,4.7C7.7,12,0.8,15.3,0,21.2c-0.4,3.4,2.3,6.4,5.3,7.4c1.4,0.5,5.1,1.3,6.8,0.2c-0.5,3.9-1.1,7.7-1.3,11.6
	c0,0.7,0.6,1.2,1.3,1.3c2,0.2,4,0,6-0.1c1.2-0.1,2.6,0.1,3.9,0.1c-0.3,0.6-0.5,1.1-0.6,1.5c-0.6,3.3-0.2,7.5,2.3,9.9
	c3,3,7.6,2.7,10.8,0.2c2.3-1.9,3.9-6.2,2.9-9.3c4.2,0.7,10.9,1.6,12.2-2.3c0.8-2.5,0.4-5.7,0.2-8.3c0-0.8,0.1-2.9-0.6-3.7
	c0.1-0.6-0.6-1.3-1.2-0.9c-1.7,1.3-3.7,3.1-6,1.9c-0.2-0.1-0.4-0.3-0.6-0.4c0-0.5-0.4-0.9-0.8-0.9c-0.9-1.1-1.4-2.6-1.7-4
	c-0.4-1.7-0.3-3.9,1-5.2c1.8-1.8,5.5,0.4,7.1,1.4c1.2,0.8,2.3-0.8,1.7-1.8c0,0,0.1,0,0.1-0.1C50.7,18.3,50.4,14.7,50.5,12.7z
	 M36.9,3c1.3,0,2.6,0,3.9,0c-1.4,1.9-2.9,3.8-4.4,5.7C37.1,7.1,37.3,5.1,36.9,3z M43.3,2.9c0.6,0,1.3,0,1.9-0.1
	c2-0.1,2.1-1.1,2.3,0.9c0,0.4,0.1,0.7,0.1,1.1c-0.2-0.1-0.5-0.1-0.8,0C33.8,13,25.3,27.4,13.5,37.4c0-1,0.1-2,0.1-3.1
	c0.2,0,0.4,0,0.5-0.1C25.3,25.2,35.1,14.6,43.3,2.9z M29.8,12.2c0.1-0.1,0.2-0.2,0.3-0.3c1.9,0.3,3.4-0.1,4.5-0.9
	c-6.4,7.8-13.4,15-20.8,22c0-1.3,0.1-2.5,0-3.8c0,0,0.1,0,0.1-0.1C19.7,24,23.3,16.7,29.8,12.2z M19.8,3.1c0.8,0.1,1.7,0.2,2.5,0.1
	c-0.2,0.3-0.3,0.6-0.4,1c-0.2-0.1-0.4-0.1-0.7,0c-1.5,1.1-2.7,2.8-4,4.1c-0.9,1-1.9,1.9-2.8,2.9c-0.1-1-0.3-2-0.4-2.9
	c0.8-0.7,1.7-1.5,2.5-2.2c0.6-0.6,1.2-1.1,1.9-1.6C19,4,19.6,3.8,19.8,3.1z M23.2,8.3c-0.1,0-0.1,0-0.2,0.1
	c-2.7,2.1-5.4,4.5-7.8,7.2c0,0,0-0.1-0.1-0.1c-0.2-1-0.4-2-0.5-3c1.1-1.1,2.3-2.1,3.5-3.2c1.2-1.1,2.7-2.1,3.7-3.5
	C22,6.6,22.5,7.5,23.2,8.3z M17.6,2.9C17,3.4,16.5,4,16.1,4.4c-0.8,0.8-1.5,1.5-2.3,2.3c-0.2-1.3-0.3-2.5-0.5-3.8
	C14.7,2.9,16.1,2.9,17.6,2.9z M2.8,20.8C3.2,18.5,5,17.1,7,16.5c-0.5,0.9-0.9,1.9-1.5,2.8c-0.8,1.4-1.7,2.9-2.4,4.4
	C2.7,22.8,2.5,21.8,2.8,20.8z M3.8,24.6c0.9-1.6,1.8-3.1,2.8-4.7c0.8-1.2,1.7-2.4,2.2-3.7c0.5,0,1,0,1.5,0.1
	c-0.7,0.8-1.3,1.6-1.6,2.1c-1.6,1.9-3.6,4.1-4.8,6.4C3.9,24.7,3.8,24.6,3.8,24.6z M13,26.9c-0.2-0.5-0.8-0.8-1.3-0.7
	c-0.8,0.1-1.4,0.5-2.3,0.6c-1.1,0-2.3-0.3-3.3-0.6c-0.4-0.1-0.8-0.3-1.2-0.6C5,25.3,5.2,25,5.4,24.8c1-1.3,2.1-2.6,3.2-3.9
	c1.2-1.4,2.7-2.7,4-4.1c0.3,0.1,0.6,0.3,0.9,0.4c0.1,0,0.1,0,0.2,0.1c-2.2,2.6-4.1,5.4-5.4,8.3c-0.3,0.6,0.6,1.1,0.9,0.5
	c3.8-6.4,9.2-11.8,15-16.4c0.2-0.1,0.2-0.3,0.2-0.4c0.1,0,0.1,0.1,0.2,0.1c-5.5,4.4-9.8,10.3-14,15.8c-0.4,0.5,0.4,1.1,0.8,0.6
	c4.9-5.2,9.2-10.8,14.7-15.4c0,0,0,0,0-0.1c0.5,0.3,1,0.5,1.5,0.7c-2.2,1.2-4.2,4.2-5.5,5.8c-2.9,3.5-5.7,7-8.6,10.5
	C13.5,27.1,13.2,26.9,13,26.9z M22.5,38.9c-0.9-0.2-1.9-0.1-2.8,0c6-4.7,11.4-10.2,16.5-15.8c0,1,0,2,0.2,2.9
	c0.1,0.6,0.3,1.3,0.5,1.9c-0.2-0.1-0.3-0.1-0.5,0c-2.1,1.1-3.8,3.4-5.6,4.9C28.2,35,25.4,36.9,22.5,38.9z M24.4,40.8
	c0.2-0.4,0.1-0.8-0.2-1.1c-0.1-0.1-0.3-0.3-0.4-0.4c2.8-1.6,5.4-3.5,8-5.5c1.9-1.4,4.5-3.1,5.5-5.3c0.4,0.9,0.9,1.7,1.5,2.5
	C34.3,35.4,29,38.6,24,42.3c0-0.2,0.1-0.4,0.1-0.5C24.5,41.6,24.6,41.1,24.4,40.8z M35.1,46.4c-0.9,0.8-1.8,1.9-2.6,2.7
	c-0.9,0.8-2.6,2.8-3.9,2.7c-0.4,0-0.5,0.6-0.1,0.7c1.4,0.3,2.8-0.8,3.9-1.6c0.7-0.5,1.3-1.1,2-1.7c-0.3,0.5-0.5,1-0.9,1.4
	c-2,2.5-5.1,2.5-7.6,0.8c-0.2-0.1-0.4-0.3-0.5-0.5c1.8-1.2,3.6-2.3,5.4-3.5c1.3-0.8,3-1.7,4.1-2.9C34.9,45.2,35.1,45.8,35.1,46.4
	C35.1,46.4,35.1,46.4,35.1,46.4z M43.4,42.1c0.8-1.1,1.8-2,2.8-3c0.4-0.4,0.9-0.8,1.4-1.3c0,1-0.1,2.1-0.3,3.1
	C47.1,41.7,45.4,42,43.4,42.1z M44.9,33.2c0.8-0.2,1.6-0.7,2.3-1.2c0,1.2,0.1,2.5,0.2,3.7c-0.9,0.9-1.8,2-2.6,2.9
	c-1,1.1-2,2.2-2.8,3.5c-1.4,0-3-0.1-4.2-0.1c0,0,0.1,0,0.1,0c2.9-2.5,6.3-4.4,9.1-6.9c0.6-0.5-0.2-1.5-0.8-1.1
	c-3.2,1.9-6.5,4.6-9,7.3c-0.2,0.3-0.1,0.6,0.1,0.7c-0.4,0-0.7,0-1,0c-0.4-0.3-1-0.2-1.4,0.1c-0.4,0.2-0.5,0.6-0.4,1
	c-1.8,0.9-3.4,2.6-5,3.7c-1.6,1.1-3.2,2.2-4.8,3.4c-0.3-0.6-0.6-1.4-0.7-2.1C31,43.7,38.8,38.8,44.9,33.2z M40,32.2
	c0.3,0.3,0.7,0.5,1,0.7c0.3,0.1,0.5,0.2,0.8,0.3c-2.5,1.8-4.9,3.9-7.3,5.8c-3.5,2.7-7.1,5.4-10.7,8.1c-0.1-0.6-0.1-1.3-0.1-1.8
	c0-0.5,0-0.9,0-1.4C29.4,40.2,35.3,36.9,40,32.2z M40.7,17.1c-0.8,0.2-1.6,0.5-2.3,1.1c-0.3,0.3-0.6,0.6-0.8,0.9
	c-0.2,0-0.5,0.1-0.7,0.3C31,26,25,32.4,18.4,38.4c-0.2,0.2-0.2,0.3-0.2,0.5c-1.6,0.1-3.2,0.2-4.8,0.2c0-0.1,0-0.2,0-0.4
	c13-8.8,22.1-22.5,34.3-32.4c0,0.1,0,0.3,0,0.4c0.1,1,0.1,1.9,0.2,2.9c-1.4,1.1-2.5,2.5-3.7,3.8C43.1,14.8,41.9,16,40.7,17.1z
	 M47,18.6c-0.4-0.2-0.8-0.4-1.2-0.6c0.5-0.3,1-0.7,1.5-1.1c0.1-0.1,0.1-0.1,0.2-0.2C47.4,17.3,47.2,18,47,18.6z M47.9,13.6
	c-0.5,0.7-0.7,1.5-1.2,2.2c-0.5,0.7-1.2,1.3-2,1.7c-0.7-0.2-1.3-0.4-2-0.5c0.7-0.6,1.5-1.3,2.2-2c1-1,2.1-1.9,3.1-3
	C48,12.6,47.9,13.1,47.9,13.6z"/>
</svg>
