<?xml version="1.0" encoding="utf-8"?>
<!-- Generator: Adobe Illustrator 19.0.0, SVG Export Plug-In . SVG Version: 6.00 Build 0)  -->
<svg version="1.1" id="objects" xmlns="http://www.w3.org/2000/svg" xmlns:xlink="http://www.w3.org/1999/xlink" x="0px" y="0px"
	 viewBox="0 0 51.7 54.8" style="enable-background:new 0 0 51.7 54.8;" xml:space="preserve">
<style type="text/css">
	.st0{fill:#1D1D1B;}
</style>
<g>
	<g>
		<path class="st0" d="M23.6,0.1C23.6,0.1,23.6,0.1,23.6,0.1C23.6,0.1,23.6,0.1,23.6,0.1z"/>
		<path class="st0" d="M23.5,0.2C23.5,0.2,23.6,0.1,23.5,0.2C23.4,0.2,23.3,0.3,23.5,0.2z"/>
		<path class="st0" d="M23.6,0.1C23.6,0.1,23.6,0.1,23.6,0.1C23.6,0.1,23.6,0.1,23.6,0.1C23.6,0.1,23.6,0.1,23.6,0.1z"/>
		<path class="st0" d="M40.6,49.4c-0.1-0.4-0.5-0.7-1-0.7c-1,0-1.9-0.1-2.9-0.2c-0.5-0.1-1.1-0.2-1.6-0.2c0.1-1.1,0.1-2.2,0-3.3
			c0-1.5-0.1-3.3-0.7-4.8c1.5-0.9,2.6-2.5,3-5c0.4-2.3,0.9-10.4-1.7-12.2c0.4,0,1-0.3,1-0.8c0.7-4.7,0.4-9.3,0.1-14
			c-0.1-0.6-0.5-1.1-1.1-1.1c-2.5-0.1-5.5-0.5-8.5-0.8c0.1-1,0.3-2.1,0.3-3.1c0-0.1,0-0.2-0.1-0.3c0.1,0,0.3,0,0.4,0c0,0,0,0,0-0.1
			c1.5-0.1,1.7-2.2,0-2.4c-0.8-0.1-1.5-0.1-2.3-0.2c-0.2,0-0.4-0.1-0.7-0.1c-0.1,0-0.2,0-0.3,0c0,0,0,0,0,0C24.3,0,24,0,23.6,0.1
			c0,0,0,0,0.1,0c0,0-0.1,0-0.1,0c0,0,0,0-0.1,0c0,0,0,0,0,0c-0.4,0.2-0.6,0.5-0.7,0.9c-0.3,0.5-0.1,1.4,0.8,1.5
			c0.4,0,0.7,0.1,1.1,0.1c0,0.5-0.1,1-0.2,1.5c-0.1,0.6-0.3,1.3,0,1.9c-3.1-0.2-6,0-8.5,1.2c-0.7,0.3-0.7,1-0.4,1.5
			c-0.3,0.1-0.5,0.3-0.5,0.6c-0.5,4.7-1.9,11.4,3.6,13.7c0.1,0,0.2,0.1,0.2,0.1c-0.8,0.3-1.5,0.8-2,1.4c-3-1-6-0.1-8.5,1.8
			c-2.3,1.8-4.4,5.9-3.1,8.7c0.3,0.7,1.2,0.4,1.4-0.2c0.4-1.1,0.3-2.3,0.7-3.5c0.4-1.3,1.2-2.4,2.1-3.3c1.8-1.8,4.2-2.2,6.7-2.3
			c-1.3,3.1-0.8,7.8-0.6,10.6c0.1,1.5,0.7,2.6,1.6,3.2c-1,1.2-1,3.1-1,4.7c0,1.5,0.2,3,0.3,4.4c-1.7-0.3-3.5-0.3-5.2-0.6
			c-0.5-0.1-1.1,0.1-1.2,0.7c-0.5,1.9-0.3,4,1.5,5.2c1.6,1,3.9,0.6,5.5-0.1c0.1,0,0.2-0.1,0.3-0.2c0,0,0,0,0,0
			c1.4,0.5,3.1,0.5,4.5,0c0.4-0.1,0.8-0.5,0.7-1c0-3.9-0.1-7.9-1.2-11.7c1.1,0.1,2.2,0.1,3.2,0.2c1.3,0.1,2.6,0.2,3.9,0.2
			c0,1.7-0.2,4-0.1,6.2c0,0,0,0,0,0c0.2,3.5,1.2,6.5,5.3,6c0,0,0.1,0.1,0.1,0.1c1.8,0.6,3.6-0.3,5.4,0c0.5,0.1,1-0.1,1.2-0.7
			C41,51.8,41,50.7,40.6,49.4z M16.7,52.6c-1.2,0.1-2.5,0.3-3.6,0c-1-0.3-1.2-1.3-1.1-2.2c1.6,0.2,3.2,0.4,4.8,0.5
			C16.7,51.5,16.7,52.1,16.7,52.6z M18.4,20.2c-0.5-0.4-0.8-1-1.1-1.6c0.5,0.1,1,0.2,1.4,0.3C18.6,19.3,18.4,19.8,18.4,20.2z
			 M16.9,17.3c-0.5-2.4-0.2-5.3-0.4-7.9c0,0,0,0,0-0.1c0.1,0,0.3,0,0.4,0c5.7-1.5,11.9-0.2,17.8,0c0.3,3.8,0.5,7.7,0.1,11.5
			c-0.4,0-0.8,0.1-1.3,0.1c0.3-0.5,0.5-1.1,0.5-1.6c0.2-0.1,0.4-0.2,0.5-0.3c0.6-0.4,0.3-1.2-0.3-1.2c-1.9-0.2-3.9,0.1-6,0.2
			c-0.2-0.1-0.5-0.1-0.7,0.1c-0.7,0-1.3,0.1-1.9,0.1c-0.2,0-0.4,0-0.7,0c-0.1,0-0.2,0-0.2,0c-0.7,0-1.5-0.1-2.2-0.1
			c-0.1-0.4-0.7-0.5-0.8-0.1c0,0,0,0,0,0.1c-0.6-0.1-1.3-0.1-1.9-0.2c0,0-0.1,0-0.1,0C18.7,17.6,17.8,17.5,16.9,17.3z M32.7,19.7
			c0,0.1,0,0.3-0.1,0.4c-0.1,0.3-0.2,0.6-0.3,0.9c-0.4,0-0.9,0.1-1.3,0.1c0.2-0.4,0.4-0.8,0.5-1.2C31.9,19.9,32.3,19.8,32.7,19.7z
			 M30.2,20c-0.1,0.4-0.2,0.8-0.3,1.2c-0.7,0.1-1.5,0.1-2.2,0.2c0.1-0.2,0.2-0.5,0.2-0.7c0.1-0.2,0.2-0.5,0.2-0.8
			C28.8,20,29.5,20,30.2,20z M26.9,19.9c0,0.2-0.1,0.4-0.1,0.5c-0.1,0.4-0.2,0.7-0.3,1.1c-0.8,0.1-1.6,0.1-2.5,0.1
			c0.2-0.5,0.5-1.1,0.7-1.6c0-0.1,0.1-0.2,0.1-0.3c0.2,0,0.4,0,0.7,0.1C26,19.8,26.4,19.8,26.9,19.9z M23.8,19.6
			C23.8,19.6,23.8,19.6,23.8,19.6c-0.2,0.7-0.3,1.4-0.5,2.1c-0.2,0-0.4,0-0.6,0c-0.3,0-0.6,0-0.9-0.1c0.2-0.7,0.4-1.4,0.5-2.2
			C22.9,19.5,23.3,19.5,23.8,19.6z M21.2,19.3c-0.1,0.7-0.1,1.5-0.2,2.2c-0.7-0.1-1.3-0.3-1.7-0.6c0-0.1,0-0.3,0-0.4
			c0.1-0.5,0.3-0.9,0.4-1.4C20.3,19.2,20.8,19.2,21.2,19.3z M20.5,44.7c-0.7,0-1.4,0-2.1,0.1c0-1.4,0.3-2.8,0.4-4.2
			c0.5,0.2,1,0.3,1.5,0.4c0,0,0,0.1,0,0.1C20.4,42.3,20.4,43.5,20.5,44.7z M18.4,46.1c0,0,0-0.1,0-0.1c0.7,0.1,1.4,0.1,2.1,0.1
			c0,0.9,0.1,1.9,0.1,2.8c-0.7,0.1-1.3,0.4-1.9,0.5C18.6,48.2,18.5,47.2,18.4,46.1z M18.8,52c0-0.6,0-1.1,0-1.7
			c0.6,0,1.3-0.1,1.8-0.3c0,0.7,0,1.3,0,2C20,52.1,19.4,52.1,18.8,52z M29.7,41.5c1.1,0,2.1-0.2,3-0.5c0.2,1.2,0.4,2.3,0.5,3.5
			c-0.5,0-1.1,0.1-1.5,0.1c-0.5,0-1.2,0-1.8,0.1C29.9,43.7,29.9,42.6,29.7,41.5z M33.1,50.9c-0.2,1.7-1.3,1.2-2,0.1
			c-0.5-0.8-0.8-1.7-0.9-2.7c0.2,0,0.5,0,0.7,0c0.7,0,1.6,0.2,2.3,0.1c0.1,0,0.1,0,0.2-0.1C33.3,49.2,33.2,50,33.1,50.9z M33.2,47.1
			c-0.6-0.1-1.3,0-2,0.1c-0.4,0-0.8,0-1.1,0c0-0.4,0-0.8-0.1-1.2c0.5,0.1,1.1,0,1.6,0.1c0.5,0,1.1,0.1,1.7,0.1c0,0.3,0,0.6,0,1
			C33.3,47.1,33.2,47.1,33.2,47.1z M25.9,39.5c-3.1-0.3-8.2,0.6-8.5-3.5c-0.3-3.6-0.8-9.8,2.2-12.2c0.1-0.1,0.1-0.1,0.1-0.2
			c4.5,1.4,9.9,0,14.6-0.4c-0.1,0.2-0.1,0.5,0,0.8c1.5,2.8,1.5,6.4,1.4,9.6C35.5,39.5,30.8,39.9,25.9,39.5z M38.8,52
			c-1.3,0.3-2.7,0.6-4.1,0.6c0.1-0.8,0.2-1.5,0.3-2.3c0.5,0.1,1,0.1,1.4,0.1c0.8,0.1,1.6,0.1,2.4,0.2C38.9,51.1,38.9,51.5,38.8,52z"
			/>
	</g>
	<path class="st0" d="M21.9,12.3c0-0.3,0.1-0.6,0.1-0.9c0.2-1.5-2.6-1.5-2.4,0c0.1,0.4,0.1,0.9,0.1,1.3c-0.4,0-0.9,0.1-1.3,0.1
		c-0.7,0.1-0.7,1,0,1.1c0.4,0,0.9,0.1,1.3,0.1c0,0.4,0,0.7-0.1,1.1c-0.1,0.8,1.1,1.5,1.5,0.6c0.2-0.5,0.3-0.9,0.5-1.4
		c0,0,0.1,0,0.1,0C23.4,14.9,23.4,12,21.9,12.3z"/>
	<path class="st0" d="M32.7,12c-0.3-0.1-0.7,0-1.1,0c0-0.2,0-0.3,0-0.4c-0.1-0.5-0.5-0.9-1-0.9c-0.5,0-0.9,0.3-1,0.8
		c0,0.2,0,0.4,0,0.6c-0.4,0-0.9,0.1-1.3,0.1c-0.9,0.1-0.9,1.3,0,1.4c0.5,0.1,1,0.1,1.5,0.1c0,0.4,0.1,0.8,0.1,1.1c0.1,1,1.4,1,1.5,0
		c0-0.3,0.1-0.7,0.1-1c0.4,0,0.9,0.1,1.2,0C33.7,13.7,33.7,12.2,32.7,12z"/>
	<path class="st0" d="M30.7,34.1c-3.4,0.6-6.9,0.2-10.3,0.2c-1.6,0-1.6,2.5,0,2.6c2.3,0,4.5,0.1,6.8,0.1c1.4,0,3.4,0.1,4.5-1
		C32.7,35.2,31.8,33.9,30.7,34.1z"/>
	<path class="st0" d="M22.5,28.2c-0.4-0.5-1.3-0.5-1.6,0c-0.6,0.7-0.4,1.5-0.3,2.4c0.2,1.5,2.1,1.5,2.3,0
		C22.9,29.7,23.1,28.9,22.5,28.2z"/>
	<path class="st0" d="M28,31.1c-0.3-1-0.1-2.1-0.6-3.1c-0.3-0.6-1.2-0.8-1.7-0.5c-0.6,0.4-0.7,1.1-0.5,1.7c0.4,0.8,0.6,1.8,1.1,2.6
		C26.9,32.7,28.3,32.1,28,31.1z"/>
	<path class="st0" d="M29,28.4c0,0.8,0.2,1.7,0.3,2.5c0.1,1.3,1.8,1.3,2,0c0.1-0.8,0.2-1.7,0.3-2.5C31.6,26.8,28.9,26.8,29,28.4z"/>
	<path class="st0" d="M13,33.5c1.4-1.1,3.2-1.6,4.5-2.8c0.6-0.6-0.1-1.3-0.7-1.3c-0.5,0.1-1,0.2-1.5,0.5c-0.5-0.5-1.4-0.8-2-1.1
		c-0.9-0.6-1.8-1.3-2.5-2.1c-0.4-0.5-1.2,0.2-0.8,0.6c0.6,0.9,1.4,1.6,2.2,2.2c0.5,0.3,0.9,0.7,1.4,1c0.1,0.1,0.2,0.1,0.3,0.2
		c-0.5,0.4-1,0.8-1.5,1.2c-0.5-0.4-1.3-0.6-1.8-0.9C9.7,30.5,9,30,8.3,29.4c-0.4-0.3-1,0.2-0.6,0.6c0.6,0.7,1.3,1.2,2,1.7
		c0.5,0.4,1.1,0.8,1.7,1c-0.3,0.4-0.6,0.7-0.9,1.1c-1.7-0.2-3.2-1.1-4.8-1.4c-0.5-0.1-0.8,0.6-0.3,0.8c1.2,0.6,2.5,1,3.7,1.5
		c0.3,0.1,0.6,0.2,0.9,0.3c-0.2,0.5-0.3,1-0.4,1.5c-2.3-1.2-5.4-0.8-7.5,0.6c-2.9,2-2.6,5.4-0.4,7.8c0.4,0.4,1,0.4,1.4,0
		c1.1-1,2.4-1.7,3.5-2.6c0.6,1.2,1.3,2.4,1.4,3.8c0.1,0.8,0.8,1.2,1.5,0.9c3.4-1.6,6.8-7.7,1.9-9.9c-0.3-0.2-0.7-0.1-1,0.1
		c0,0,0,0-0.1,0C10.9,35.7,11.8,34.5,13,33.5z M11.8,41.9c-0.3,1.1-1,2-1.9,2.6c-0.4-1.4-1.2-2.7-1.7-4.1c-0.2-0.7-1.1-1-1.7-0.4
		c-1.2,1.1-2.6,1.9-3.8,2.8c-1.1-1.7-0.6-3.3,1.4-4.4c1.8-1,3.7-0.9,5.5-0.3c0.1,0.2,0.4,0.3,0.6,0.2c0,0.1,0.1,0.2,0.3,0.4
		C11.6,39.6,12.2,40.4,11.8,41.9z"/>
	<path class="st0" d="M46.2,33.6c0.5-1.6-1.6-3.7-2.6-4.6c-1.9-1.8-4.4-3.4-7-4c-0.5-0.1-0.9,0.6-0.4,0.9c1.2,0.6,2.3,1.2,3.3,1.9
		c-0.7,0.4-1.3,1.1-1.7,1.7c-0.3,0.5-0.5,1.1-0.5,1.7c-0.6-0.2-0.9,0.7-0.4,1c1,0.5,1.8,1.2,2.6,2c0,0.1,0.1,0.2,0.3,0.3
		c0.1,0.1,0.2,0.2,0.3,0.3c0.4,0.5,0.8,1.1,1.4,1.5c-0.8,1.1-1.3,2.3-1,3.5c-0.6,1.3,0.6,3.3,1.6,3.9c0.2,0.1,0.3,0,0.4,0
		c0.1,0,0.2,0,0.3,0c1.1-0.2,1.6-1.1,2.4-1.8c1.4-1.4,3-2.2,5-1.8c0.6,0.1,1.4-0.3,1.4-1C51.4,35.8,49.3,33.3,46.2,33.6z M40,32.7
		c-0.5-0.4-1.1-0.8-1.7-1.2c0.1-0.5,0.3-1.1,0.6-1.5c0.5-0.7,1.3-1,2-1.3c0.3,0.3,0.7,0.5,1,0.8c0.2,0.2,0.4,0.4,0.5,0.5
		c-0.6,0.2-1.1,0.7-1.5,1.2C40.5,31.7,40.2,32.2,40,32.7z M41,33.6c-0.1-0.1-0.1-0.1-0.2-0.2c0.2-0.5,0.5-0.9,0.9-1.3
		c0.4-0.5,1-0.7,1.5-1.1c0.3,0.3,0.6,0.7,0.8,1c0.4,0.6,0.5,1.3,0.9,1.9c0,0-0.1,0-0.1,0c-0.7,0.2-1.5,0.7-2.1,1.2
		C42.2,34.5,41.5,34,41,33.6z M42.3,42.5c-0.1-0.2-0.3-0.4-0.3-0.7c0-0.1,0-0.2,0-0.3c0.4,0,0.7-0.5,0.6-0.9
		c-0.3-2.1,0.6-3.8,2.6-4.6c2.1-0.9,3.6,0.1,4.2,1.9C46.3,38,43.8,39.9,42.3,42.5z"/>
</g>
</svg>
